<?xml version="1.0" encoding="UTF-8" standalone="no" ?>
<!DOCTYPE svg PUBLIC "-//W3C//DTD SVG 1.1//EN" "http://www.w3.org/Graphics/SVG/1.1/DTD/svg11.dtd">
<svg xmlns="http://www.w3.org/2000/svg" xmlns:xlink="http://www.w3.org/1999/xlink" version="1.1" width="224" height="72" viewBox="-29 -3.67 224 72" xml:space="preserve">
<desc>Created with Fabric.js 5.2.4</desc>
<defs>
</defs>
<rect x="0" y="0" width="100%" height="100%" fill="transparent"></rect>
<g transform="matrix(1 0 0 1 112 36)" id="7a867f58-a908-4f30-a839-fb725512b521"  >
<rect style="stroke: none; stroke-width: 1; stroke-dasharray: none; stroke-linecap: butt; stroke-dashoffset: 0; stroke-linejoin: miter; stroke-miterlimit: 4; fill: rgb(255,255,255); fill-rule: nonzero; opacity: 1; visibility: hidden;" vector-effect="non-scaling-stroke"  x="-112" y="-36" rx="0" ry="0" width="224" height="72" />
</g>
<g transform="matrix(Infinity NaN NaN Infinity 0 0)" id="29611287-bf1c-4faf-8eb1-df32f6424829"  >
</g>
<g transform="matrix(0.07 0 0 0.07 382.02 122.8)" id="60cdd44f-027a-437a-92c4-c8d44c60ef9e"  >
<path style="stroke: rgb(0,0,0); stroke-width: 0; stroke-dasharray: none; stroke-linecap: butt; stroke-dashoffset: 0; stroke-linejoin: miter; stroke-miterlimit: 4; fill: rgb(50,50,42); fill-rule: nonzero; opacity: 1;" vector-effect="non-scaling-stroke"  transform=" translate(-64, -64)" d="M 57.62 61.68 C 55.919999999999995 61.92 54.75 63.46 55 65.11 C 55.1668510745875 66.32380621250819 56.039448735907676 67.32218371690155 57.22 67.65 C 57.22 67.65 64.69 70.11 77.4 71.16000000000001 C 87.61000000000001 72.01 99.2 70.43 99.2 70.43 C 100.9 70.39 102.23 68.98 102.19 67.28 C 102.17037752125772 66.4652516996782 101.82707564255573 65.69186585376654 101.23597809465886 65.13079230830253 C 100.644880546762 64.56971876283853 99.85466451370849 64.26716220997277 99.03999999999999 64.29 C 98.83999999999999 64.29 98.63999999999999 64.33000000000001 98.42999999999999 64.37 C 98.42999999999999 64.37 87.08999999999999 65.78 77.88 65.02000000000001 C 65.72999999999999 64.05000000000001 59.11 61.83000000000001 59.11 61.83000000000001 C 58.63 61.670000000000016 58.1 61.59000000000001 57.62 61.670000000000016 Z M 57.62 46.46 C 55.919999999999995 46.7 54.75 48.24 55 49.89 C 55.1668510745875 51.10380621250818 56.039448735907676 52.10218371690154 57.22 52.43 C 57.22 52.43 64.69 54.89 77.4 55.94 C 87.61000000000001 56.79 99.2 55.21 99.2 55.21 C 100.9 55.17 102.23 53.76 102.19 52.06 C 102.17037752125772 51.245251699678214 101.82707564255573 50.47186585376654 101.23597809465886 49.91079230830253 C 100.644880546762 49.34971876283853 99.85466451370849 49.047162209972754 99.03999999999999 49.07 C 98.83999999999999 49.07 98.63999999999999 49.11 98.42999999999999 49.15 C 98.42999999999999 49.15 87.08999999999999 50.559999999999995 77.88 49.8 C 65.72999999999999 48.83 59.11 46.61 59.11 46.61 C 58.63 46.45 58.1 46.37 57.62 46.45 Z M 57.62 31.240000000000002 C 55.919999999999995 31.48 54.75 33.02 55 34.67 C 55.1668510745875 35.88380621250818 56.039448735907676 36.882183716901544 57.22 37.21 C 57.22 37.21 64.69 39.67 77.4 40.72 C 87.61000000000001 41.57 99.2 39.99 99.2 39.99 C 100.9 39.95 102.23 38.54 102.19 36.84 C 102.17037752125772 36.025251699678215 101.82707564255573 35.25186585376654 101.23597809465886 34.690792308302534 C 100.644880546762 34.12971876283853 99.85466451370849 33.827162209972755 99.03999999999999 33.85 C 98.83999999999999 33.85 98.63999999999999 33.89 98.42999999999999 33.93 C 98.42999999999999 33.93 87.08999999999999 35.339999999999996 77.88 34.58 C 65.72999999999999 33.61 59.11 31.389999999999997 59.11 31.389999999999997 C 58.63 31.229999999999997 58.1 31.189999999999998 57.62 31.229999999999997 Z M 57.62 16.060000000000002 C 55.919999999999995 16.3 54.75 17.840000000000003 55 19.490000000000002 C 55.1668510745875 20.703806212508187 56.039448735907676 21.702183716901544 57.22 22.03 C 57.22 22.03 64.69 24.490000000000002 77.4 25.54 C 87.61000000000001 26.39 99.2 24.81 99.2 24.81 C 100.9 24.77 102.23 23.36 102.19 21.66 C 102.17037752125772 20.84525169967821 101.82707564255573 20.07186585376654 101.23597809465886 19.510792308302534 C 100.644880546762 18.949718762838526 99.8546645137085 18.64716220997276 99.03999999999999 18.67 C 98.83999999999999 18.67 98.63999999999999 18.71 98.42999999999999 18.75 C 98.42999999999999 18.75 87.08999999999999 20.16 77.88 19.4 C 65.72999999999999 18.43 59.11 16.209999999999997 59.11 16.209999999999997 C 58.637850878541954 16.01924514007714 58.12188500879498 15.963839409097599 57.62 16.049999999999997 Z M 36.31 0 C 20.32 0.12 14.39 5.05 14.39 5.05 L 14.39 124.42 C 14.39 124.42 20.2 119.41 38.93 120.18 C 57.66 120.95000000000002 61.5 127.53 84.50999999999999 127.97000000000001 C 107.52 128.41000000000003 113.28999999999999 124.42000000000002 113.28999999999999 124.42000000000002 L 113.60999999999999 2.750000000000014 C 113.60999999999999 2.750000000000014 103.28 5.7 83.09 5.86 C 62.95 6.01 58.11 0.73 39.62 0.12 C 38.49 0.04 37.4 0 36.31 0 Z M 49.67 7.79 C 49.67 7.79 59.36 10.98 77.24000000000001 11.870000000000001 C 92.38000000000001 12.64 107.52000000000001 10.38 107.52000000000001 10.38 L 107.52000000000001 118.53 C 107.52000000000001 118.53 99.85000000000001 122.57000000000001 80.68 121.19 C 65.82000000000001 120.14 49.480000000000004 114.49 49.480000000000004 114.49 L 49.68000000000001 7.799999999999997 Z M 40.35 10.620000000000001 C 42.050000000000004 10.620000000000001 43.46 11.990000000000002 43.46 13.73 C 43.46 15.469999999999999 42.09 16.84 40.35 16.84 C 40.35 16.84 35.34 16.88 32.28 17.16 C 27.150000000000002 17.68 23.64 19.54 23.64 19.54 C 22.150000000000002 20.349999999999998 20.25 19.74 19.48 18.25 C 18.67 16.76 19.28 14.86 20.77 14.09 C 22.259999999999998 13.32 25.33 11.67 31.67 11.06 C 35.34 10.66 40.35 10.620000000000001 40.35 10.620000000000001 Z M 37.36 25.880000000000003 C 39.06 25.840000000000003 40.35 25.880000000000003 40.35 25.880000000000003 C 42.050000000000004 26.080000000000002 43.260000000000005 27.62 43.050000000000004 29.310000000000002 C 42.88374644848126 30.726609090871516 41.76660909087151 31.843746448481262 40.35 32.010000000000005 C 40.35 32.010000000000005 35.34 32.050000000000004 32.28 32.330000000000005 C 27.150000000000002 32.85000000000001 23.64 34.71000000000001 23.64 34.71000000000001 C 22.150000000000002 35.52000000000001 20.25 34.91000000000001 19.48 33.42000000000001 C 18.67 31.93000000000001 19.28 30.03000000000001 20.77 29.26000000000001 C 20.77 29.26000000000001 25.33 26.84000000000001 31.67 26.230000000000008 C 33.53 25.99000000000001 35.67 25.910000000000007 37.36 25.870000000000008 Z M 40.35 41.06 C 42.050000000000004 41.06 43.46 42.43 43.46 44.17 C 43.46 45.910000000000004 42.09 47.28 40.35 47.28 C 40.35 47.28 35.34 47.24 32.28 47.56 C 27.150000000000002 48.080000000000005 23.64 49.940000000000005 23.64 49.940000000000005 C 22.150000000000002 50.75000000000001 20.25 50.14000000000001 19.48 48.650000000000006 C 18.67 47.160000000000004 19.28 45.260000000000005 20.77 44.49000000000001 C 20.77 44.49000000000001 25.33 42.07000000000001 31.67 41.46000000000001 C 35.34 41.02000000000001 40.35 41.06000000000001 40.35 41.06000000000001 Z" stroke-linecap="round" />
</g>
<g transform="matrix(0.07 0 0 0.07 396.05 123.14)" style="" id="eb0df536-c517-4781-a7c0-3f84cd77c272"  >
		<text xml:space="preserve" font-family="Lato" font-size="40" font-style="normal" font-weight="400" style="stroke: none; stroke-width: 1; stroke-dasharray: none; stroke-linecap: butt; stroke-dashoffset: 0; stroke-linejoin: miter; stroke-miterlimit: 4; fill: rgb(0,0,0); fill-rule: nonzero; opacity: 1; white-space: pre;" ><tspan x="-130" y="12.57" >Read The Docs</tspan></text>
</g>
<g transform="matrix(0.28 0 0 0.28 27.88 36)" id="7b9eddb9-1652-4040-9437-2ab90652d624"  >
<path style="stroke: rgb(0,0,0); stroke-width: 0; stroke-dasharray: none; stroke-linecap: butt; stroke-dashoffset: 0; stroke-linejoin: miter; stroke-miterlimit: 4; fill: rgb(50,50,42); fill-rule: nonzero; opacity: 1;" vector-effect="non-scaling-stroke"  transform=" translate(-64, -64)" d="M 57.62 61.68 C 55.919999999999995 61.92 54.75 63.46 55 65.11 C 55.1668510745875 66.32380621250819 56.039448735907676 67.32218371690155 57.22 67.65 C 57.22 67.65 64.69 70.11 77.4 71.16000000000001 C 87.61000000000001 72.01 99.2 70.43 99.2 70.43 C 100.9 70.39 102.23 68.98 102.19 67.28 C 102.17037752125772 66.4652516996782 101.82707564255573 65.69186585376654 101.23597809465886 65.13079230830253 C 100.644880546762 64.56971876283853 99.85466451370849 64.26716220997277 99.03999999999999 64.29 C 98.83999999999999 64.29 98.63999999999999 64.33000000000001 98.42999999999999 64.37 C 98.42999999999999 64.37 87.08999999999999 65.78 77.88 65.02000000000001 C 65.72999999999999 64.05000000000001 59.11 61.83000000000001 59.11 61.83000000000001 C 58.63 61.670000000000016 58.1 61.59000000000001 57.62 61.670000000000016 Z M 57.62 46.46 C 55.919999999999995 46.7 54.75 48.24 55 49.89 C 55.1668510745875 51.10380621250818 56.039448735907676 52.10218371690154 57.22 52.43 C 57.22 52.43 64.69 54.89 77.4 55.94 C 87.61000000000001 56.79 99.2 55.21 99.2 55.21 C 100.9 55.17 102.23 53.76 102.19 52.06 C 102.17037752125772 51.245251699678214 101.82707564255573 50.47186585376654 101.23597809465886 49.91079230830253 C 100.644880546762 49.34971876283853 99.85466451370849 49.047162209972754 99.03999999999999 49.07 C 98.83999999999999 49.07 98.63999999999999 49.11 98.42999999999999 49.15 C 98.42999999999999 49.15 87.08999999999999 50.559999999999995 77.88 49.8 C 65.72999999999999 48.83 59.11 46.61 59.11 46.61 C 58.63 46.45 58.1 46.37 57.62 46.45 Z M 57.62 31.240000000000002 C 55.919999999999995 31.48 54.75 33.02 55 34.67 C 55.1668510745875 35.88380621250818 56.039448735907676 36.882183716901544 57.22 37.21 C 57.22 37.21 64.69 39.67 77.4 40.72 C 87.61000000000001 41.57 99.2 39.99 99.2 39.99 C 100.9 39.95 102.23 38.54 102.19 36.84 C 102.17037752125772 36.025251699678215 101.82707564255573 35.25186585376654 101.23597809465886 34.690792308302534 C 100.644880546762 34.12971876283853 99.85466451370849 33.827162209972755 99.03999999999999 33.85 C 98.83999999999999 33.85 98.63999999999999 33.89 98.42999999999999 33.93 C 98.42999999999999 33.93 87.08999999999999 35.339999999999996 77.88 34.58 C 65.72999999999999 33.61 59.11 31.389999999999997 59.11 31.389999999999997 C 58.63 31.229999999999997 58.1 31.189999999999998 57.62 31.229999999999997 Z M 57.62 16.060000000000002 C 55.919999999999995 16.3 54.75 17.840000000000003 55 19.490000000000002 C 55.1668510745875 20.703806212508187 56.039448735907676 21.702183716901544 57.22 22.03 C 57.22 22.03 64.69 24.490000000000002 77.4 25.54 C 87.61000000000001 26.39 99.2 24.81 99.2 24.81 C 100.9 24.77 102.23 23.36 102.19 21.66 C 102.17037752125772 20.84525169967821 101.82707564255573 20.07186585376654 101.23597809465886 19.510792308302534 C 100.644880546762 18.949718762838526 99.8546645137085 18.64716220997276 99.03999999999999 18.67 C 98.83999999999999 18.67 98.63999999999999 18.71 98.42999999999999 18.75 C 98.42999999999999 18.75 87.08999999999999 20.16 77.88 19.4 C 65.72999999999999 18.43 59.11 16.209999999999997 59.11 16.209999999999997 C 58.637850878541954 16.01924514007714 58.12188500879498 15.963839409097599 57.62 16.049999999999997 Z M 36.31 0 C 20.32 0.12 14.39 5.05 14.39 5.05 L 14.39 124.42 C 14.39 124.42 20.2 119.41 38.93 120.18 C 57.66 120.95000000000002 61.5 127.53 84.50999999999999 127.97000000000001 C 107.52 128.41000000000003 113.28999999999999 124.42000000000002 113.28999999999999 124.42000000000002 L 113.60999999999999 2.750000000000014 C 113.60999999999999 2.750000000000014 103.28 5.7 83.09 5.86 C 62.95 6.01 58.11 0.73 39.62 0.12 C 38.49 0.04 37.4 0 36.31 0 Z M 49.67 7.79 C 49.67 7.79 59.36 10.98 77.24000000000001 11.870000000000001 C 92.38000000000001 12.64 107.52000000000001 10.38 107.52000000000001 10.38 L 107.52000000000001 118.53 C 107.52000000000001 118.53 99.85000000000001 122.57000000000001 80.68 121.19 C 65.82000000000001 120.14 49.480000000000004 114.49 49.480000000000004 114.49 L 49.68000000000001 7.799999999999997 Z M 40.35 10.620000000000001 C 42.050000000000004 10.620000000000001 43.46 11.990000000000002 43.46 13.73 C 43.46 15.469999999999999 42.09 16.84 40.35 16.84 C 40.35 16.84 35.34 16.88 32.28 17.16 C 27.150000000000002 17.68 23.64 19.54 23.64 19.54 C 22.150000000000002 20.349999999999998 20.25 19.74 19.48 18.25 C 18.67 16.76 19.28 14.86 20.77 14.09 C 22.259999999999998 13.32 25.33 11.67 31.67 11.06 C 35.34 10.66 40.35 10.620000000000001 40.35 10.620000000000001 Z M 37.36 25.880000000000003 C 39.06 25.840000000000003 40.35 25.880000000000003 40.35 25.880000000000003 C 42.050000000000004 26.080000000000002 43.260000000000005 27.62 43.050000000000004 29.310000000000002 C 42.88374644848126 30.726609090871516 41.76660909087151 31.843746448481262 40.35 32.010000000000005 C 40.35 32.010000000000005 35.34 32.050000000000004 32.28 32.330000000000005 C 27.150000000000002 32.85000000000001 23.64 34.71000000000001 23.64 34.71000000000001 C 22.150000000000002 35.52000000000001 20.25 34.91000000000001 19.48 33.42000000000001 C 18.67 31.93000000000001 19.28 30.03000000000001 20.77 29.26000000000001 C 20.77 29.26000000000001 25.33 26.84000000000001 31.67 26.230000000000008 C 33.53 25.99000000000001 35.67 25.910000000000007 37.36 25.870000000000008 Z M 40.35 41.06 C 42.050000000000004 41.06 43.46 42.43 43.46 44.17 C 43.46 45.910000000000004 42.09 47.28 40.35 47.28 C 40.35 47.28 35.34 47.24 32.28 47.56 C 27.150000000000002 48.080000000000005 23.64 49.940000000000005 23.64 49.940000000000005 C 22.150000000000002 50.75000000000001 20.25 50.14000000000001 19.48 48.650000000000006 C 18.67 47.160000000000004 19.28 45.260000000000005 20.77 44.49000000000001 C 20.77 44.49000000000001 25.33 42.07000000000001 31.67 41.46000000000001 C 35.34 41.02000000000001 40.35 41.06000000000001 40.35 41.06000000000001 Z" stroke-linecap="round" />
</g>
<g transform="matrix(0.9 0 0 0.9 94 36)" style="" id="385bde16-f9fa-4222-bfea-1d5d5efcf730"  >
		<text xml:space="preserve" font-family="Lato" font-size="15" font-style="normal" font-weight="100" style="stroke: none; stroke-width: 1; stroke-dasharray: none; stroke-linecap: butt; stroke-dashoffset: 0; stroke-linejoin: miter; stroke-miterlimit: 4; fill: rgb(0,0,0); fill-rule: nonzero; opacity: 1; white-space: pre;" ><tspan x="-48.68" y="4.71" >Read The Docs</tspan></text>
</g>
</svg>