<svg width="84" height="84" viewBox="0 0 84 84" fill="none" xmlns="http://www.w3.org/2000/svg">
<g id="Frame 1312317176">
<g id="Group 1312316503">
<path id="Vector 2" d="M4.19922 45.0843L19.2327 27.332H62.2174L74.9123 45.0843H4.19922Z" fill="#D6DAE1"/>
<path id="Vector 3" d="M4.19922 55.7337L19.2327 38.2773H62.2174L74.9123 55.7337H4.19922Z" fill="#EFF2F4"/>
<path id="Rectangle 4" d="M4.19922 45.082H74.9123V71.4011H4.19922V45.082Z" fill="#D6DAE1"/>
<path id="Vector" d="M27.3008 42.1886C27.3008 42.1886 31.6288 21.2106 47.9877 22.1117C58.6237 22.6672 52.933 31.5185 47.5387 27.6078C40.2531 22.353 46.8737 12.158 58.3672 12.6165" stroke="white" stroke-width="1.4" stroke-miterlimit="10"/>
</g>
<path id="Polygon 1" d="M72.4199 13.1319L57.3994 19.1593L61.2849 12.8308L57.747 6.30166L72.4199 13.1319Z" fill="#005DFF"/>
<g id="Group 1312317183">
<line id="Line 1" x1="12.0223" y1="19.4777" x2="16.4771" y2="23.9325" stroke="white" stroke-width="1.4"/>
<line id="Line 2" x1="8.24367" y1="24.8864" x2="14.329" y2="26.5169" stroke="white" stroke-width="1.4"/>
<line id="Line 3" x1="18.816" y1="22.0288" x2="17.1855" y2="15.9435" stroke="white" stroke-width="1.4"/>
</g>
</g>
</svg>
