<svg width="117" height="33" viewBox="0 0 117 33" fill="none" xmlns="http://www.w3.org/2000/svg">
<path opacity="0.4" d="M1.62333 12.0672C1.59143 11.9352 1.61643 11.7959 1.69224 11.6832L7.00309 3.7881C7.07068 3.68762 7.17347 3.6161 7.29119 3.58765L21.6677 0.113558C21.9277 0.050728 22.1894 0.210569 22.2522 0.470572L25.9139 15.6234C27.3912 21.7368 23.6329 27.8902 17.5196 29.3675C11.4062 30.8448 5.25278 27.0866 3.77548 20.9732L1.62333 12.0672Z" fill="url(#paint0_linear_4102_1070)"/>
<path d="M5.82617 8.67262C5.82617 8.53679 5.88321 8.4072 5.98337 8.31546L13.0001 1.88877C13.0894 1.80697 13.2061 1.7616 13.3272 1.7616H28.1175C28.385 1.7616 28.6018 1.97844 28.6018 2.24593V17.8349C28.6018 24.1243 23.5033 29.2228 17.214 29.2228C10.9247 29.2228 5.82617 24.1243 5.82617 17.8349V8.67262Z" fill="url(#paint1_linear_4102_1070)"/>
<path d="M12.3314 8.75272L5.94842 8.35474L13.0703 1.83537L13.3688 7.72672C13.3987 8.30987 12.9142 8.78905 12.3314 8.75272Z" fill="#5D76FF"/>
<path fill-rule="evenodd" clip-rule="evenodd" d="M20.4163 15.0221V16.7333C20.4163 18.0609 19.34 19.1372 18.0124 19.1372C16.6848 19.1372 15.6085 18.0609 15.6085 16.7333V12.4552H12.7972V17.1407C12.7972 20.021 15.1321 22.3559 18.0124 22.3559C20.8927 22.3559 23.2276 20.021 23.2276 17.1407V12.4552L23.2276 15.0221H20.4163Z" fill="#0028FD"/>
<path d="M23.2276 13.8812H24.3684V15.0221L23.2276 15.0221L23.2276 13.8812Z" fill="#0028FD"/>
<path d="M20.4163 13.1886H22.2497V15.0221L20.4163 15.0221L20.4163 13.1886Z" fill="#0028FD"/>
<path d="M22.2497 12.2107H23.2276V13.1886L22.2497 13.1886L22.2497 12.2107Z" fill="#0028FD"/>
<path d="M23.798 10.581H24.4091V11.1922H23.798V10.581Z" fill="#0028FD"/>
<path fill-rule="evenodd" clip-rule="evenodd" d="M20.0864 14.9121V16.6233C20.0864 17.9509 19.0102 19.0272 17.6825 19.0272C16.3549 19.0272 15.2787 17.951 15.2787 16.6233V12.3453H12.4674V17.0308C12.4674 19.911 14.8023 22.2459 17.6825 22.2459C20.5628 22.2459 22.8977 19.911 22.8977 17.0308V12.3453L22.8977 14.9121H20.0864Z" fill="white"/>
<path d="M22.8977 13.7713H24.0385V14.9121L22.8977 14.9121L22.8977 13.7713Z" fill="white"/>
<path d="M20.0864 13.0786H21.9199V14.9121L20.0864 14.9121L20.0864 13.0786Z" fill="white"/>
<path d="M21.9199 12.1008H22.8977V13.0786L21.9199 13.0786L21.9199 12.1008Z" fill="white"/>
<path d="M23.4681 10.4711H24.0793V11.0822H23.4681V10.4711Z" fill="white"/>
<path d="M38.498 7.70654H43.5757L46.833 17.5265H46.9767L50.3299 7.70654H55.2638V24.3286H52.1741V10.7723H52.0304L48.4617 20.9754H45.2522L41.7075 10.7723H41.5638V24.3286H38.498V7.70654Z" fill="#2951F2"/>
<path d="M102.908 8.5108H106.093V18.2239C106.093 19.1975 106.355 19.9625 106.878 20.5189C107.498 21.2298 108.364 21.5852 109.475 21.5852C110.585 21.5852 111.451 21.2298 112.072 20.5189C112.595 19.9625 112.856 19.1975 112.856 18.2239V8.5108H116.041V17.9689C116.041 19.7307 115.633 21.1062 114.816 22.0952C114.244 22.8061 113.477 23.3548 112.513 23.7411C111.566 24.1275 110.553 24.3207 109.475 24.3207C108.397 24.3207 107.376 24.1275 106.412 23.7411C105.465 23.3548 104.705 22.8061 104.133 22.0952C103.317 21.1062 102.908 19.7307 102.908 17.9689V8.5108Z" fill="#2951F2"/>
<path d="M90.4883 24.3163V13.6627H93.49V15.2619C93.8509 14.573 94.2937 14.0809 94.8186 13.7857C95.3107 13.474 95.9012 13.3182 96.5901 13.3182C96.9838 13.3182 97.4103 13.4002 97.8696 13.5642L97.4759 16.3691C97.0986 16.1067 96.6311 15.9755 96.0734 15.9755C95.2041 15.9755 94.5398 16.2625 94.0805 16.8366C93.6868 17.3287 93.49 18.116 93.49 19.1986V24.3163H90.4883Z" fill="#2951F2"/>
<path d="M85.3342 20.5716L88.0899 21.0145C87.9751 21.3098 87.8193 21.605 87.6224 21.9003C87.442 22.1791 87.1549 22.5318 86.7613 22.9583C86.3676 23.3683 85.8345 23.7046 85.162 23.967C84.4895 24.2131 83.7185 24.3361 82.8492 24.3361C81.1761 24.3361 79.8147 23.8358 78.7649 22.8352C77.6495 21.7854 77.0918 20.3994 77.0918 18.6771C77.0918 16.9712 77.6331 15.577 78.7157 14.4944C79.7327 13.4938 81.0695 12.9935 82.7262 12.9935C84.5305 12.9935 85.9165 13.5758 86.8843 14.7404C87.7372 15.7574 88.1637 17.1516 88.1637 18.9232V19.1692H80.1919C80.1919 19.8909 80.3642 20.4896 80.7086 20.9653C81.2007 21.6378 81.9142 21.9741 82.8492 21.9741C83.9646 21.9741 84.7929 21.5066 85.3342 20.5716ZM80.2903 17.2501H85.3342C85.2194 16.5611 84.9159 16.0363 84.4239 15.6754C83.9482 15.2981 83.4069 15.1095 82.8 15.1095C82.2095 15.1095 81.6682 15.2981 81.1761 15.6754C80.7004 16.0527 80.4052 16.5775 80.2903 17.2501Z" fill="#2951F2"/>
<path d="M64.4902 24.3163V13.6627H67.492V15.0405C68.3121 13.8923 69.4111 13.3182 70.7889 13.3182C72.1832 13.3182 73.2329 13.7529 73.9383 14.6222C74.496 15.3112 74.7748 16.3117 74.7748 17.624V24.3163H71.7731V18.5097C71.7731 17.5091 71.5845 16.812 71.2072 16.4183C70.8627 16.0575 70.3953 15.877 69.8048 15.877C68.9846 15.877 68.3695 16.1887 67.9594 16.812C67.6478 17.3041 67.492 17.993 67.492 18.8788V24.3163H64.4902Z" fill="#2951F2"/>
<path d="M58.627 13.6622H61.6287V24.3159H58.627V13.6622Z" fill="#2951F2"/>
<path d="M58.6387 11.0709C58.6387 11.4795 58.7817 11.8335 59.0677 12.1331C59.3673 12.4191 59.7213 12.5621 60.1299 12.5621C60.5385 12.5621 60.8857 12.4191 61.1717 12.1331C61.4713 11.8335 61.6211 11.4795 61.6211 11.0709C61.6211 10.6624 61.4713 10.3151 61.1717 10.0291C60.8857 9.72948 60.5385 9.57968 60.1299 9.57968C59.7213 9.57968 59.3673 9.72948 59.0677 10.0291C58.7817 10.3151 58.6387 10.6624 58.6387 11.0709Z" fill="#2951F2"/>
<defs>
<linearGradient id="paint0_linear_4102_1070" x1="-1.1646" y1="8.74619" x2="26.2454" y2="15.8908" gradientUnits="userSpaceOnUse">
<stop stop-color="#1543FE"/>
<stop offset="1" stop-color="#8C46FF"/>
</linearGradient>
<linearGradient id="paint1_linear_4102_1070" x1="3.89633" y1="4.78963" x2="28.8613" y2="18.1727" gradientUnits="userSpaceOnUse">
<stop stop-color="#1543FE"/>
<stop offset="1" stop-color="#8C46FF"/>
</linearGradient>
</defs>
</svg>
