<svg width="24" height="25" viewBox="0 0 24 25" fill="none" xmlns="http://www.w3.org/2000/svg">
<g id="Frame 1312319626">
<path id="Rectangle 1921711969" d="M3.95117 4.24598V19.839C3.95117 20.7286 4.67232 21.4497 5.5619 21.4497H16.2474H18.9742C19.5673 21.4497 20.048 20.9689 20.048 20.3759V10.9972V7.55964C20.048 7.25299 19.9169 6.96097 19.6878 6.7572L15.3576 2.90663C15.1611 2.73182 14.9071 2.63525 14.6441 2.63525H14.4974H5.5619C4.67232 2.63525 3.95117 3.3564 3.95117 4.24598Z" fill="#B5CAFF"/>
<path id="Vector 472" d="M10.3729 8.37168L11.916 6.82861L13.4567 8.36934" stroke="white" stroke-width="1.2" stroke-linecap="round" stroke-linejoin="round"/>
<path id="Vector 473" d="M11.915 6.83003L11.9181 11.2821" stroke="white" stroke-width="1.2" stroke-linecap="round" stroke-linejoin="round"/>
<rect id="Rectangle 1921711970" x="3.95117" y="13.3008" width="16.0969" height="8.14922" rx="1.2" fill="#2860F6"/>
<g id="PDF">
<path d="M6.25977 15.125H7.79671C8.13393 15.125 8.41495 15.1553 8.63976 15.2158C8.8689 15.272 9.05047 15.3628 9.1845 15.4882C9.32284 15.6092 9.42012 15.767 9.47632 15.9616C9.53685 16.1518 9.56711 16.3831 9.56711 16.6555C9.56711 16.9494 9.53469 17.198 9.46984 17.4012C9.40499 17.6001 9.30123 17.7622 9.15856 17.8876C9.01589 18.013 8.83215 18.1038 8.60733 18.16C8.38252 18.2119 8.11231 18.2378 7.79671 18.2378H7.24548V19.6256H6.25977V15.125ZM7.66701 17.4466C7.83562 17.4466 7.97613 17.4358 8.08853 17.4142C8.20094 17.3883 8.29173 17.345 8.3609 17.2845C8.4344 17.224 8.48628 17.1462 8.51654 17.051C8.54681 16.9516 8.56194 16.8262 8.56194 16.6749C8.56194 16.5322 8.54681 16.4112 8.51654 16.3118C8.48628 16.2123 8.4344 16.1323 8.3609 16.0718C8.29173 16.0113 8.19878 15.968 8.08205 15.9421C7.96964 15.9162 7.8313 15.9032 7.66701 15.9032H7.24548V17.4466H7.66701Z" fill="white"/>
<path d="M11.9133 15.125C12.2419 15.125 12.5402 15.1553 12.8082 15.2158C13.0806 15.272 13.3119 15.3822 13.5021 15.5465C13.6967 15.7108 13.8458 15.9399 13.9496 16.2339C14.0534 16.5279 14.1052 16.9084 14.1052 17.3753C14.1052 17.8119 14.0534 18.1751 13.9496 18.4648C13.8458 18.7501 13.6967 18.9792 13.5021 19.1522C13.3119 19.3251 13.0806 19.4483 12.8082 19.5218C12.5402 19.591 12.2419 19.6256 11.9133 19.6256H10.3699V15.125H11.9133ZM11.8614 18.7825C12.069 18.7825 12.2484 18.7609 12.3997 18.7177C12.5553 18.6745 12.6829 18.5988 12.7823 18.4907C12.8861 18.3826 12.9617 18.2378 13.0093 18.0562C13.0612 17.8746 13.0871 17.6477 13.0871 17.3753C13.0871 17.0856 13.0612 16.85 13.0093 16.6684C12.9574 16.4825 12.8796 16.3377 12.7758 16.2339C12.6764 16.1259 12.5488 16.0524 12.3932 16.0134C12.2419 15.9745 12.0646 15.9551 11.8614 15.9551H11.3556V18.7825H11.8614Z" fill="white"/>
<path d="M15.9787 15.981V17.0251H17.6129V17.8746H15.9787V19.6256H14.993V15.125H17.7426V15.981H15.9787Z" fill="white"/>
</g>
</g>
</svg>
