<svg width="18" height="18" viewBox="0 0 18 18" fill="none" xmlns="http://www.w3.org/2000/svg">
<g id="Frame">
<path id="Vector" d="M9.00078 1.80054C5.02566 1.80054 1.80078 5.10534 1.80078 9.1827C1.80078 12.4443 3.8643 15.2113 6.72486 16.1869C7.08486 16.256 7.20078 16.0263 7.20078 15.8319V14.4581C5.19846 14.9045 4.78086 13.5869 4.78086 13.5869C4.45326 12.733 3.98166 12.5069 3.98166 12.5069C3.3279 12.0483 4.03062 12.0584 4.03062 12.0584C4.7535 12.1102 5.13438 12.8194 5.13438 12.8194C5.7759 13.9477 6.81846 13.6222 7.22958 13.4329C7.29366 12.9562 7.48086 12.6301 7.6875 12.445C6.08766 12.2578 4.40646 11.6257 4.40646 8.79822C4.40646 7.99038 4.68798 7.33302 5.14806 6.81606C5.0739 6.62958 4.82694 5.87862 5.21862 4.86126C5.21862 4.86126 5.82342 4.66398 7.19862 5.6187C7.78537 5.4549 8.3916 5.37134 9.00078 5.3703C9.61062 5.37174 10.2176 5.45526 10.8051 5.6187C12.1789 4.66398 12.7829 4.8627 12.7829 4.8627C13.1739 5.87862 12.9269 6.6303 12.8535 6.81678C13.3157 7.33302 13.5944 7.9911 13.5944 8.79822C13.5944 11.6329 11.9103 12.2571 10.3069 12.4393C10.5639 12.6682 10.8008 13.1175 10.8008 13.8073V15.8333C10.8008 16.0285 10.916 16.2589 11.281 16.1869C14.1416 15.2098 16.2008 12.4429 16.2008 9.1827C16.2008 5.10534 12.9773 1.80054 9.00078 1.80054Z" fill="#121316"/>
</g>
</svg>
