<svg width="18" height="18" viewBox="0 0 18 18" fill="none" xmlns="http://www.w3.org/2000/svg">
<g id="Frame" clip-path="url(#clip0_4039_7221)">
<path id="Vector" fill-rule="evenodd" clip-rule="evenodd" d="M2.78811 1.95801H6.25531C7.13531 1.95801 7.78651 2.61801 7.79531 3.49801V7.01801C7.79531 7.84521 7.13531 8.55801 6.25531 8.55801H2.73531C1.90811 8.55801 1.19531 7.89801 1.19531 7.01801V3.49801C1.19531 2.61801 1.90811 1.95801 2.78811 1.95801ZM2.78811 10.2124H6.25531C7.13531 10.2124 7.78651 10.8636 7.79531 11.7524V15.2724C7.79531 16.0996 7.13531 16.8124 6.25531 16.8124H2.78811C1.96091 16.8124 1.24811 16.1524 1.24811 15.2724V11.7524C1.24811 10.9252 1.90811 10.2124 2.78811 10.2124ZM10.9809 10.2124H14.5009C15.3809 10.2124 16.0409 10.8636 16.0409 11.7524V15.2724C16.0409 16.0996 15.3809 16.8124 14.5009 16.8124H10.9809C10.1537 16.8124 9.44091 16.1524 9.44091 15.2724V11.7524C9.44091 10.9252 10.1009 10.2124 10.9809 10.2124Z" fill="#C3C5C6"/>
<path id="Vector_2" d="M16.0413 6.99932L16.0413 3.50225C16.0413 2.64354 15.3444 1.94662 14.4857 1.94662L10.9886 1.94662C10.6028 1.94662 10.2108 2.10218 9.89968 2.41331C9.58855 2.72444 9.43299 3.11646 9.43299 3.50225L9.43299 6.99932C9.43299 7.38512 9.58855 7.77714 9.89968 8.08827C10.2108 8.39939 10.6028 8.55496 10.9886 8.55496H14.4857C14.8715 8.55496 15.2635 8.39939 15.5746 8.08827C15.9293 7.8207 16.0849 7.42868 16.0413 6.99932Z" fill="#808286"/>
</g>
<defs>
<clipPath id="clip0_4039_7221">
<rect width="17.6" height="17.6" fill="white" transform="translate(0.201172 0.197754)"/>
</clipPath>
</defs>
</svg>
