<svg width="29" height="29" viewBox="0 0 29 29" fill="none" xmlns="http://www.w3.org/2000/svg">
<path fill-rule="evenodd" clip-rule="evenodd" d="M2.44727 10.1695C2.44727 8.70452 3.25467 7.35884 4.54727 6.66946L12.4806 2.43835C13.6473 1.81612 15.0473 1.81612 16.2139 2.43835L24.1473 6.66946C25.4399 7.35884 26.2473 8.70452 26.2473 10.1695V18.83C26.2473 20.2949 25.4399 21.6406 24.1473 22.33L16.2139 26.5611C15.0473 27.1833 13.6473 27.1833 12.4806 26.5611L4.54727 22.33C3.25467 21.6406 2.44727 20.2949 2.44727 18.83V10.1695Z" fill="url(#paint0_linear_3876_4986)"/>
<path d="M17.7849 3.27585L8.08164 8.57852C6.80884 9.27408 6.01717 10.6089 6.01717 12.0593V15.775C6.01717 17.1696 6.78969 18.4494 8.02367 19.0991C9.27451 19.7577 10.7772 18.8507 10.7772 17.4371V14.612C10.7772 13.1475 11.5842 11.8021 12.8762 11.1125L22.6746 5.8833L24.1278 6.65882L14.4273 11.9638C13.155 12.6595 12.3638 13.994 12.3638 15.444V18.0536C12.3638 20.4152 9.85047 21.928 7.7636 20.8224C5.71293 19.7361 4.4305 17.6054 4.4305 15.2847V11.2273C4.4305 9.76233 5.23791 8.41665 6.5305 7.72726L16.3305 2.5006L17.7849 3.27585Z" fill="white"/>
<defs>
<linearGradient id="paint0_linear_3876_4986" x1="5.60377" y1="4.36627" x2="23.5632" y2="24.8291" gradientUnits="userSpaceOnUse">
<stop stop-color="#3A7CFF"/>
<stop offset="0.510353" stop-color="#0D3CDE"/>
<stop offset="1" stop-color="#5E36FD"/>
</linearGradient>
</defs>
</svg>
