<svg width="24" height="25" viewBox="0 0 24 25" fill="none" xmlns="http://www.w3.org/2000/svg">
<g id="ChineseEnglishShiftOutlined">
<path id="&#228;&#184;&#173;&#232;&#139;&#177;&#230;&#150;&#135;&#229;&#136;&#135;&#230;&#141;&#162;" d="M14.5737 5.22889C15.1137 5.22889 15.5516 5.66671 15.5516 6.20679C15.5516 6.74687 15.1137 7.1847 14.5737 7.1847L13.3536 7.1847C13.2235 7.59559 13.0305 8.14952 12.7676 8.76832C12.3148 9.83352 11.6291 11.1523 10.6538 12.2579C11.5357 12.9256 12.5179 13.532 13.3798 14.0178C13.9751 14.3534 14.5005 14.6245 14.8762 14.8112L14.9042 14.8251L15.6824 12.9638C15.9076 12.4251 16.4344 12.0744 17.0182 12.0744C17.6021 12.0744 18.1289 12.4251 18.3541 12.9638L20.2842 17.5805L21.4777 20.5835C21.6771 21.0853 21.432 21.6539 20.9301 21.8534C20.4282 22.0529 19.8596 21.8077 19.6601 21.3058L19.1004 19.8976H14.9363L14.3768 21.3057C14.1773 21.8076 13.6088 22.0528 13.1069 21.8534C12.605 21.654 12.3598 21.0854 12.5592 20.5835L13.7588 17.5645L14.1483 16.6331C14.1032 16.6109 14.0555 16.5874 14.0055 16.5625C13.6061 16.364 13.05 16.077 12.4195 15.7216C11.4433 15.1714 10.2575 14.4398 9.19525 13.6023C8.13303 14.4398 6.94722 15.1714 5.97101 15.7216C5.3405 16.077 4.78441 16.364 4.38505 16.5625C4.20007 16.6545 4.04828 16.7277 3.93777 16.7802C3.93538 16.7816 3.93298 16.783 3.93057 16.7844C3.87746 16.815 3.82273 16.8403 3.76701 16.8602L3.74613 16.8699L3.73632 16.8744L3.73344 16.8757C3.73344 16.8757 3.7334 16.8757 3.73172 16.8721C3.29901 17.0092 2.81608 16.8355 2.58179 16.4297C2.31534 15.9682 2.46969 15.3783 2.92514 15.0985C2.92372 15.0954 2.92371 15.0954 2.92371 15.0954L2.93132 15.0919L2.95374 15.0815C3.00103 15.0546 3.0496 15.0319 3.09898 15.0134C3.19978 14.9655 3.34089 14.8975 3.51436 14.8112C3.89002 14.6245 4.4154 14.3534 5.01066 14.0178C5.8726 13.532 6.85485 12.9256 7.73672 12.2579C6.76141 11.1523 6.07567 9.83352 5.62296 8.76832C5.35996 8.14951 5.16703 7.59559 5.03688 7.1847H3.81673C3.27665 7.1847 2.83883 6.74687 2.83883 6.20679C2.83883 5.66671 3.27665 5.22889 3.81673 5.22889L8.10014 5.22889L7.93911 4.42378C7.8332 3.89419 8.17665 3.379 8.70624 3.27309C9.23584 3.16717 9.75102 3.51062 9.85694 4.04021L10.0947 5.22889L14.5737 5.22889ZM9.19525 10.9549C9.96415 10.0806 10.5512 8.9829 10.9676 8.00332C11.0919 7.71078 11.1987 7.43425 11.2888 7.1847L7.10166 7.1847C7.19178 7.43425 7.29861 7.71078 7.42294 8.00332C7.83927 8.9829 8.42636 10.0806 9.19525 10.9549ZM15.7211 17.9418H18.3154L17.0182 14.8391L15.7211 17.9418Z" fill="#464A53"/>
</g>
</svg>
