<svg width="24" height="22" viewBox="0 0 24 22" fill="none" xmlns="http://www.w3.org/2000/svg">
<mask id="mask0_3876_4980" style="mask-type:luminance" maskUnits="userSpaceOnUse" x="1" y="0" width="23" height="22">
<path d="M15.0223 0C19.696 0 23.4936 3.64334 23.5691 8.16556L23.5703 8.30286V13.2352C23.5703 17.7749 19.8194 21.4637 15.1637 21.537L15.0223 21.5381H1.39648V9.35367C1.39648 8.40024 2.1922 7.62734 3.17377 7.62734C4.13925 7.62734 4.92492 8.37511 4.95042 9.30693L4.95106 9.35367V18.0854H15.0223C17.7525 18.0854 19.9709 15.9571 20.015 13.3155L20.0157 13.2352V8.30286C20.0157 5.65096 17.8246 3.49615 15.1049 3.45332L15.0223 3.45267H10.1432C9.16166 3.45267 8.36594 2.67977 8.36594 1.72634C8.36594 0.788537 9.13579 0.0253897 10.0951 0.000620535L10.1432 0H15.0223Z" fill="white"/>
</mask>
<g mask="url(#mask0_3876_4980)">
<path d="M15.0224 0C19.6961 0 23.4937 3.64334 23.5692 8.16556L23.5703 8.30286V13.2352C23.5703 17.1953 20.7162 20.5078 16.897 21.3378C17.0667 21.3007 17.2344 21.2589 17.4001 21.2123C19.0292 19.3377 20.011 16.9152 20.011 14.27C20.011 14.1181 20.0078 13.9669 20.0014 13.8165L19.9948 13.6818C20.0062 13.5609 20.013 13.4388 20.0151 13.3155L20.0157 13.2352V8.30286C20.0157 8.15829 20.0092 8.01519 19.9965 7.87384C20.0061 7.71677 20.011 7.55841 20.011 7.39894C20.011 3.99677 17.7713 1.10272 14.646 0.0319928L14.551 0.000106111L10.1409 0.000358026L10.0928 0.000978561L10.0312 0.0035922C10.0535 0.00204785 10.0743 0.00115943 10.0952 0.000620535L10.1433 0H15.0224Z" fill="#0D53DE"/>
</g>
<path d="M2.84352 7.65771C2.03492 7.80549 1.4196 8.48519 1.39749 9.30836L1.39687 9.35423L1.39686 15.8885C2.24668 16.9683 3.46412 17.7584 4.86542 18.0677L4.94911 18.0855L4.97911 18.0865L15.0204 18.0864C17.6287 18.0864 19.7714 16.1593 19.9958 13.6824C20.0072 13.8821 20.0114 14.068 20.0114 14.2706C20.0114 16.9158 19.0295 19.3383 17.4004 21.2129C16.688 21.4131 15.9374 21.5257 15.1618 21.5379L15.0204 21.539H1.39453V9.35459C1.39453 8.52223 2.00099 7.82746 2.80813 7.66443L2.84352 7.65771Z" fill="#0D53DE"/>
<path d="M14.5526 0.000488281C17.7274 1.04468 20.0126 3.96279 20.0126 7.39933C20.0126 7.56382 20.0084 7.71225 19.998 7.87422C19.7837 5.41574 17.6806 3.49464 15.1042 3.45406L15.0216 3.45341H10.1425C9.16095 3.45341 8.36523 2.68051 8.36523 1.72708C8.36523 0.789277 9.13508 0.0261299 10.0944 0.00136073L10.1425 0.000740196L14.5526 0.000488281Z" fill="#0D53DE"/>
<path d="M3.17379 7.62793C4.13927 7.62793 4.92494 8.3757 4.95044 9.30752L4.95108 9.35427V18.086C3.51359 17.7906 2.26366 16.9904 1.39648 15.8886L1.3965 9.35427C1.3965 8.40084 2.19222 7.62793 3.17379 7.62793Z" fill="#0D53DE"/>
<path fill-rule="evenodd" clip-rule="evenodd" d="M6.16346 1.16505C6.16346 0.839281 5.89005 0.575195 5.55278 0.575195H1.58334C1.24607 0.575195 0.972656 0.839281 0.972656 1.16505V4.99909C0.972656 5.32486 1.24607 5.58894 1.58334 5.58894L4.1935 5.59084C5.02712 5.59145 5.84085 5.84551 6.52672 6.31932C7.46035 6.96428 8.07774 7.96002 8.25104 9.06287V14.2187C8.25104 14.4602 8.44684 14.656 8.68836 14.656H16.277C16.5185 14.656 16.7143 14.4602 16.7143 14.2187V7.34241C16.7143 7.10088 16.5185 6.90509 16.277 6.90509H9.97556C9.21516 6.8493 8.48304 6.58299 7.86253 6.13319C6.79526 5.35952 6.16346 4.1212 6.16346 2.80301V1.16505Z" fill="#0D53DE"/>
</svg>
