<svg width="16" height="17" viewBox="0 0 16 17" fill="none" xmlns="http://www.w3.org/2000/svg">
<g id="MenuFoldOutlined">
<g id="Vector">
<path d="M1.14648 3.9918C1.14648 3.62361 1.44496 3.32513 1.81315 3.32513H13.8132C14.1813 3.32513 14.4798 3.62361 14.4798 3.9918C14.4798 4.35999 14.1813 4.65847 13.8132 4.65847H1.81315C1.44496 4.65847 1.14648 4.35999 1.14648 3.9918Z" fill="#464A53"/>
<path d="M6.19303 8.50002C6.19303 8.13183 6.49151 7.83335 6.8597 7.83335L13.813 7.83335C14.1812 7.83335 14.4797 8.13183 14.4797 8.50002C14.4797 8.86821 14.1812 9.16669 13.813 9.16669L6.8597 9.16669C6.49151 9.16669 6.19303 8.86821 6.19303 8.50002Z" fill="#464A53"/>
<path d="M1.14648 13.0055C1.14648 12.6373 1.44496 12.3388 1.81315 12.3388H13.8132C14.1813 12.3388 14.4798 12.6373 14.4798 13.0055C14.4798 13.3737 14.1813 13.6721 13.8132 13.6721H1.81315C1.44496 13.6721 1.14648 13.3737 1.14648 13.0055Z" fill="#464A53"/>
<path d="M3.70949 6.68469C3.91501 6.55624 4.17403 6.54944 4.386 6.66693C4.59797 6.78441 4.72949 7.00767 4.72949 7.25002V9.75002C4.72949 9.99237 4.59797 10.2156 4.386 10.3331C4.17403 10.4506 3.91501 10.4438 3.70949 10.3154L1.70949 9.06535C1.51457 8.94353 1.39616 8.72988 1.39616 8.50002C1.39616 8.27016 1.51457 8.05651 1.70949 7.93469L3.70949 6.68469Z" fill="#464A53"/>
</g>
</g>
</svg>
