<svg width="18" height="19" viewBox="0 0 18 19" fill="none" xmlns="http://www.w3.org/2000/svg">
<path d="M10.0209 9.135C10.1032 8.83545 9.9271 8.52588 9.62755 8.44355C9.328 8.36123 9.01842 8.53733 8.93608 8.83688L7.97929 12.3179C7.89696 12.6175 8.07305 12.9271 8.3726 13.0094C8.67215 13.0917 8.98173 12.9156 9.06406 12.6161L10.0209 9.135Z" fill="#0D53DE"/>
<path d="M7.05842 8.57835C7.28023 8.79585 7.28373 9.15199 7.06623 9.3738L5.86173 10.6022L6.98588 11.8832C7.19079 12.1167 7.16762 12.4721 6.93412 12.677C6.70062 12.8819 6.34522 12.8587 6.14031 12.6252L4.67194 10.952C4.47781 10.7308 4.48703 10.3973 4.69309 10.1872L6.26296 8.58616C6.48046 8.36434 6.8366 8.36084 7.05842 8.57835Z" fill="#0D53DE"/>
<path d="M10.9323 9.3467C10.7148 9.12489 10.7183 8.76875 10.9401 8.55125C11.1619 8.33375 11.5181 8.33724 11.7356 8.55906L13.3054 10.1601C13.5115 10.3702 13.5207 10.7037 13.3266 10.9249L11.8582 12.5981C11.6533 12.8316 11.2979 12.8548 11.0644 12.6499C10.8309 12.445 10.8077 12.0896 11.0127 11.8561L12.1368 10.5751L10.9323 9.3467Z" fill="#0D53DE"/>
<path d="M2.25 3.5C2.25 3.08579 2.58579 2.75 3 2.75H15C15.4142 2.75 15.75 3.08579 15.75 3.5V15.5C15.75 15.9142 15.4142 16.25 15 16.25H3C2.58579 16.25 2.25 15.9142 2.25 15.5V3.5ZM14.25 4.25H3.75V5.20796H14.25V4.25ZM14.25 6.70796H3.75V14.75H14.25V6.70796Z" fill="#0D53DE"/>
</svg>
