<svg width="56" height="57" viewBox="0 0 56 57" fill="none" xmlns="http://www.w3.org/2000/svg">
<g id="upload">
<path id="Union" fill-rule="evenodd" clip-rule="evenodd" d="M29.75 47.7505V37.2505H36.75L28 26.7505L19.25 37.2505H26.25V47.7505H16.625C12.9057 47.6408 9.81575 46.3557 7.35525 43.8952C4.89475 41.4347 3.60967 38.3448 3.5 34.6255C3.5735 31.1978 4.69467 28.2905 6.8635 25.9035C9.03233 23.5165 11.7938 22.1037 15.148 21.665C15.8048 18.4928 17.3087 15.9407 19.6595 14.0087C22.0103 12.0767 24.7905 11.074 28 11.0005C31.2083 11.074 33.9885 12.0767 36.3405 14.0087C38.6925 15.9407 40.1963 18.4928 40.852 21.665C44.2062 22.1025 46.9677 23.5153 49.1365 25.9035C51.3053 28.2917 52.4265 31.199 52.5 34.6255C52.3903 38.3448 51.1053 41.4347 48.6448 43.8952C46.1843 46.3557 43.0943 47.6408 39.375 47.7505H29.75Z" fill="url(#paint0_linear_3498_1415)"/>
</g>
<defs>
<linearGradient id="paint0_linear_3498_1415" x1="-16.2123" y1="21.4363" x2="50.2795" y2="54.8555" gradientUnits="userSpaceOnUse">
<stop stop-color="#0D53DE"/>
<stop offset="1" stop-color="#5246FF"/>
</linearGradient>
</defs>
</svg>
