<svg width="18" height="19" viewBox="0 0 18 19" fill="none" xmlns="http://www.w3.org/2000/svg">
<path d="M14.55 8.75V5.9375L11.1983 2.75H10.8259H3.75V16.25H12.75" stroke="#0D53DE" stroke-width="1.5" stroke-linecap="round" stroke-linejoin="round"/>
<path d="M10.5 2.75V6.5H14.25" stroke="#0D53DE" stroke-width="1.5" stroke-linecap="round" stroke-linejoin="round"/>
<path d="M7.96382 10.336C7.76177 10.336 7.66401 10.3686 7.55972 10.4338C7.46196 10.4989 7.42285 10.6358 7.42285 10.7987V14.038C7.42285 14.1358 7.45544 14.2401 7.52062 14.3378C7.58579 14.403 7.69008 14.4747 7.85302 14.4747C8.02248 14.4747 8.12024 14.4095 8.18542 14.3378C8.25059 14.2727 8.28318 14.1684 8.28318 14.038V13.0343H8.78504C9.68448 13.0343 10.1863 12.565 10.1863 11.6656C10.1863 11.2289 10.0495 10.8639 9.82135 10.6619C9.58672 10.4272 9.25432 10.3295 8.78504 10.3295L7.96382 10.336ZM9.33905 11.6721C9.33905 11.8742 9.30646 12.0371 9.20217 12.1088C9.137 12.174 8.96754 12.2457 8.76549 12.2457H8.26363V11.1442H8.76549C8.96754 11.1442 9.09789 11.1768 9.20217 11.281C9.30646 11.3397 9.33905 11.4766 9.33905 11.6721ZM13.2171 10.9421C13.0802 10.7401 12.8847 10.6097 12.6826 10.4729C12.448 10.4077 12.1807 10.336 11.8809 10.336H10.9098C10.7729 10.336 10.6426 10.336 10.5448 10.4729C10.5122 10.538 10.4796 10.6423 10.4796 10.7727V14.0119C10.4796 14.1488 10.5122 14.2466 10.5448 14.3118C10.6426 14.4486 10.7794 14.4486 10.9098 14.4486H11.9135C12.2133 14.4486 12.448 14.3835 12.6826 14.2792C12.8847 14.1814 13.0867 14.0119 13.2171 13.8099C13.3539 13.6079 13.4517 13.4058 13.5169 13.1386C13.582 12.9039 13.6146 12.6367 13.6146 12.3695C13.6146 12.1023 13.582 11.835 13.5169 11.6004C13.4452 11.3723 13.3474 11.1377 13.2171 10.9421ZM12.5457 13.3471C12.4089 13.5492 12.2133 13.647 11.9461 13.647H11.3465V11.1377H11.7832C12.1156 11.1377 12.3828 11.2354 12.5197 11.4375C12.6891 11.6395 12.7543 11.9719 12.7543 12.376C12.7804 12.8127 12.6826 13.1125 12.5457 13.3471ZM16.0913 10.336H14.4163C14.2794 10.336 14.1491 10.3686 14.0839 10.4338C13.9861 10.4989 13.947 10.6358 13.947 10.7662V14.0445C13.947 14.1423 13.9796 14.2466 14.0448 14.3118C14.11 14.4095 14.2143 14.4486 14.3772 14.4486C14.5141 14.4486 14.6444 14.416 14.7096 14.3118C14.7422 14.2466 14.8074 14.1749 14.8074 14.0119V12.6758H15.9414C16.1435 12.6758 16.3064 12.5781 16.3455 12.4086C16.3781 12.2717 16.3781 12.174 16.3455 12.1414C16.3129 12.0762 16.2478 11.8742 15.9414 11.8742H14.7748V11.1051H16.0457C16.1826 11.1051 16.2804 11.0725 16.3455 11.0399C16.4107 11.0073 16.4824 10.903 16.4824 10.7075C16.5215 10.5054 16.3586 10.336 16.0913 10.336Z" fill="#0D53DE"/>
</svg>
