<svg width="17" height="17" viewBox="0 0 17 17" fill="none" xmlns="http://www.w3.org/2000/svg">
<path d="M3.16667 11.1667C3.53486 11.1667 3.83333 11.4652 3.83333 11.8334V13.1667H13.1667V11.8334C13.1667 11.4652 13.4651 11.1667 13.8333 11.1667C14.2015 11.1667 14.5 11.4652 14.5 11.8334V13.8334C14.5 14.2016 14.2015 14.5001 13.8333 14.5001H3.16667C2.79848 14.5001 2.5 14.2016 2.5 13.8334V11.8334C2.5 11.4652 2.79848 11.1667 3.16667 11.1667Z" fill="white"/>
<path d="M11.0524 6.66189C11.3127 6.92224 11.7348 6.92224 11.9952 6.66189C12.2555 6.40154 12.2555 5.97943 11.9952 5.71908L8.97147 2.69538C8.84644 2.57036 8.67687 2.50012 8.50006 2.50012C8.32325 2.50012 8.15368 2.57036 8.02866 2.69539L5.00499 5.71909C4.74464 5.97944 4.74464 6.40155 5.00499 6.6619C5.26535 6.92224 5.68746 6.92224 5.9478 6.66189L7.83301 4.77667L7.83301 10.5001C7.83301 10.8682 8.13148 11.1667 8.49967 11.1667C8.86786 11.1667 9.16634 10.8682 9.16634 10.5001L9.16634 4.77588L11.0524 6.66189Z" fill="white"/>
</svg>
