<svg width="401" height="116" viewBox="0 0 401 116" fill="none" xmlns="http://www.w3.org/2000/svg">
<path fill-rule="evenodd" clip-rule="evenodd" d="M0 37.658C0 30.9285 3.70898 24.7469 9.64674 21.5801L46.09 2.14372C51.4493 -0.714573 57.8804 -0.714572 63.2397 2.14372L99.683 21.5801C105.621 24.7469 109.33 30.9285 109.33 37.658V77.4419C109.33 84.1713 105.621 90.3529 99.683 93.5198L63.2397 112.956C57.8804 115.814 51.4493 115.814 46.09 112.956L9.64674 93.5198C3.70898 90.3529 0 84.1713 0 77.4419V37.658Z" fill="url(#paint0_linear_1630_32849)"/>
<path d="M70.4565 5.99097L25.8825 30.3497C20.0357 33.5449 16.399 39.6766 16.399 46.3395V63.4082C16.399 69.8145 19.9477 75.6936 25.6163 78.6782C31.3622 81.7036 38.2649 77.537 38.2649 71.0432V58.069C38.2649 51.3396 41.9738 45.158 47.9115 41.9912L92.9375 17.9766L99.6172 21.543L55.0379 45.9017C49.1906 49.0967 45.5536 55.2286 45.5536 61.8919V73.8752C45.5536 84.7238 34.008 91.673 24.4216 86.5944C15.0014 81.604 9.11035 71.8164 9.11035 61.156V42.5172C9.11035 35.7877 12.8193 29.6061 18.757 26.4393L63.7891 2.42188L70.4565 5.99097Z" fill="white"/>
<path d="M147 30V84.6922H174.551V75.5085H157.66V30H147Z" fill="#1B67FF"/>
<path d="M207.66 53.7792C204.298 48.5314 198.968 48.0394 196.262 48.0394C185.767 48.0394 178.633 56.4031 178.633 66.8988C178.633 77.3124 185.849 85.8401 196.754 85.8401C199.296 85.8401 204.052 85.2662 207.66 80.1003V84.6922H217.664V49.1874H207.66V53.7792ZM198.804 56.8951C204.544 56.8951 208.644 61.241 208.644 66.8988C208.644 72.5566 204.544 76.9844 198.804 76.9844C193.065 76.9844 188.965 72.5566 188.965 66.8988C188.965 61.241 193.065 56.8951 198.804 56.8951Z" fill="#1B67FF"/>
<path d="M237.205 30H227.201V84.6922H237.205V80.1003C241.059 85.4301 246.224 85.8401 248.52 85.8401C259.016 85.8401 266.232 77.7224 266.232 66.8988C266.232 56.1571 259.262 48.0394 248.766 48.0394C245.732 48.0394 240.731 48.8594 237.205 53.7792V30ZM246.06 56.8951C251.8 56.8951 255.9 61.241 255.9 66.8988C255.9 72.5566 251.8 76.9844 246.06 76.9844C240.321 76.9844 236.221 72.5566 236.221 66.8988C236.221 61.241 240.321 56.8951 246.06 56.8951Z" fill="#1B67FF"/>
<path d="M299.63 73.2946C297.99 76.1645 295.12 77.9684 291.348 77.9684C287.495 77.9684 285.281 76.0825 284.215 74.6065C283.067 73.0486 282.493 70.7526 282.493 68.6207H309.06V67.8007C309.06 63.9469 308.568 58.3711 304.796 53.8612C302.336 50.9093 298.154 48.0394 290.939 48.0394C286.675 48.0394 281.755 48.9414 277.573 53.0412C275.031 55.5831 272.161 59.929 272.161 66.9808C272.161 72.5566 273.801 77.1484 277.737 80.8383C281.263 84.2002 285.609 85.8401 291.348 85.8401C303.73 85.8401 307.748 77.3944 308.814 74.7705L299.63 73.2946ZM282.821 62.2249C283.641 57.4691 287.495 55.0912 291.184 55.0912C294.874 55.0912 298.81 57.3871 299.63 62.2249H282.821Z" fill="#1B67FF"/>
<path d="M316.805 29.9998V84.6922H326.809V29.9998H316.805Z" fill="#1B67FF"/>
<path d="M356.958 30V63.4549C356.958 68.6207 357.778 73.8685 361.058 78.0504C364.994 83.2162 371.881 85.9221 378.933 85.9221C385.985 85.9221 392.873 83.2162 396.809 78.0504C400.088 73.8685 400.908 68.6207 400.908 63.4549V30H390.249V64.3568C390.249 68.5387 388.855 71.0806 387.625 72.4746C386.067 74.3605 383.197 76.2465 378.933 76.2465C374.669 76.2465 371.799 74.3605 370.241 72.4746C369.011 71.0806 367.617 68.5387 367.617 64.3568V30H356.958Z" fill="#1B67FF"/>
<defs>
<linearGradient id="paint0_linear_1630_32849" x1="11.411" y1="21.0906" x2="112.73" y2="115.1" gradientUnits="userSpaceOnUse">
<stop stop-color="#1B67FF"/>
<stop offset="1" stop-color="#4945FF"/>
</linearGradient>
</defs>
</svg>
