<svg width="1163" height="198" viewBox="0 0 1163 198" fill="none" xmlns="http://www.w3.org/2000/svg">
<path d="M128.359 104.984H94.798V144.822H128.359V104.984Z" fill="#7BC4FF"/>
<path d="M182.068 77.2788H148.432V144.822H182.068V77.2788Z" fill="#3F66FF"/>
<path d="M235.777 43.1002H202.141V144.822H235.777V43.1002Z" fill="#2951F2"/>
<path d="M97.5939 0.00831932C54.8117 0.569987 20.304 35.4257 20.3037 78.3411C20.3037 121.607 55.3773 156.682 98.6433 156.682L98.6501 156.681L235.943 156.682V197.038H98.6478C44.2375 197.038 0.128909 152.93 0.128906 98.5193C0.129371 44.4612 43.6694 0.573497 97.5939 0.00831932ZM98.6501 0.00269552H98.6456L98.6478 0.00157076L98.6501 0.00269552Z" fill="url(#paint0_linear_1318_336)"/>
<path d="M235.942 29.6746H98.6495V29.6611H98.6461C66.8484 29.6611 41.071 55.4376 41.0708 87.2353C41.071 119.033 66.8484 144.811 98.6461 144.811L98.6495 144.81V144.812H98.645C58.6571 144.812 26.2411 112.394 26.2408 72.4065C26.2409 32.4184 58.657 0.0013869 98.645 0.00112476L235.942 0V29.6746Z" fill="#2951F2"/>
<path d="M292.983 99.4174C292.983 87.1186 297.492 76.5553 306.508 67.7273C315.487 58.8993 326.277 54.4854 338.877 54.4854C351.327 54.4854 362.004 58.9371 370.907 67.8405C379.848 76.7439 384.319 87.4393 384.319 99.9267C384.319 112.49 379.829 123.147 370.851 131.9C361.834 140.69 350.95 145.085 338.198 145.085C326.918 145.085 316.789 141.18 307.81 133.371C297.926 124.732 292.983 113.414 292.983 99.4174ZM306.282 99.5872C306.282 109.245 309.526 117.187 316.015 123.411C322.467 129.636 329.917 132.749 338.368 132.749C347.536 132.749 355.27 129.58 361.57 123.242C367.87 116.828 371.02 109.019 371.02 99.8135C371.02 90.4951 367.908 82.6858 361.683 76.3855C355.496 70.0475 347.837 66.8784 338.708 66.8784C329.616 66.8784 321.938 70.0475 315.676 76.3855C309.413 82.6481 306.282 90.382 306.282 99.5872Z" fill="#2951F2"/>
<path d="M411.199 173.493H398.466V88.3825H411.199V94.3809C416.216 89.3633 421.913 86.8545 428.289 86.8545C435.872 86.8545 442.116 89.6463 447.02 95.2298C452 100.776 454.49 107.774 454.49 116.224C454.49 124.487 452.019 131.372 447.077 136.88C442.172 142.35 435.985 145.085 428.515 145.085C422.064 145.085 416.292 142.501 411.199 137.332V173.493ZM441.474 116.281C441.474 110.999 440.041 106.699 437.173 103.379C434.268 100.021 430.609 98.3422 426.195 98.3422C421.517 98.3422 417.725 99.9644 414.821 103.209C411.916 106.453 410.463 110.716 410.463 115.998C410.463 121.167 411.916 125.43 414.821 128.787C417.688 132.07 421.46 133.711 426.138 133.711C430.552 133.711 434.193 132.051 437.06 128.731C440.003 125.411 441.474 121.261 441.474 116.281Z" fill="#2951F2"/>
<path d="M518.153 118.941H478.654C478.993 123.468 480.464 127.071 483.067 129.749C485.671 132.39 489.009 133.711 493.084 133.711C496.253 133.711 498.875 132.956 500.95 131.447C502.987 129.938 505.307 127.146 507.91 123.072L518.662 129.07C517.002 131.9 515.248 134.333 513.399 136.37C511.551 138.37 509.57 140.03 507.458 141.35C505.345 142.633 503.062 143.576 500.61 144.18C498.158 144.783 495.498 145.085 492.631 145.085C484.407 145.085 477.805 142.444 472.825 137.163C467.845 131.843 465.355 124.788 465.355 115.998C465.355 107.283 467.769 100.229 472.598 94.8337C477.465 89.5142 483.916 86.8545 491.952 86.8545C500.063 86.8545 506.477 89.4388 511.192 94.6073C515.871 99.7381 518.21 106.849 518.21 115.942L518.153 118.941ZM505.081 108.528C503.308 101.738 499.026 98.3422 492.235 98.3422C490.688 98.3422 489.236 98.5874 487.878 99.0779C486.519 99.5306 485.274 100.21 484.143 101.115C483.049 101.983 482.105 103.039 481.313 104.284C480.521 105.529 479.917 106.944 479.502 108.528H505.081Z" fill="#2951F2"/>
<path d="M532.131 88.3825H544.92V93.4755C549.372 89.0615 554.389 86.8545 559.973 86.8545C566.386 86.8545 571.385 88.8729 574.969 92.9096C578.062 96.3427 579.609 101.945 579.609 109.717V143.501H566.82V112.716C566.82 107.283 566.065 103.53 564.556 101.455C563.085 99.342 560.406 98.2856 556.521 98.2856C552.295 98.2856 549.296 99.6815 547.523 102.473C545.787 105.227 544.92 110.037 544.92 116.904V143.501H532.131V88.3825Z" fill="#2951F2"/>
<path d="M598.171 143.501V56.1264H616.505C625.296 56.1264 632.237 56.9942 637.33 58.7296C642.801 60.4272 647.762 63.3133 652.214 67.3878C661.23 75.6121 665.738 86.4207 665.738 99.8135C665.738 113.244 661.041 124.109 651.648 132.409C646.932 136.559 641.99 139.445 636.821 141.067C631.992 142.689 625.145 143.501 616.279 143.501H598.171ZM611.356 131.108H617.298C623.221 131.108 628.144 130.485 632.068 129.24C635.991 127.92 639.537 125.826 642.706 122.959C649.195 117.036 652.44 109.321 652.44 99.8135C652.44 90.231 649.233 82.4594 642.82 76.4987C637.047 71.1792 628.54 68.5195 617.298 68.5195H611.356V131.108Z" fill="#2951F2"/>
<path d="M720.573 88.3825H733.363V143.501H720.573V137.728C715.33 142.633 709.69 145.085 703.653 145.085C696.033 145.085 689.732 142.331 684.752 136.823C679.81 131.202 677.339 124.185 677.339 115.772C677.339 107.51 679.81 100.625 684.752 95.1166C689.695 89.6086 695.882 86.8545 703.314 86.8545C709.727 86.8545 715.48 89.4954 720.573 94.7771V88.3825ZM690.355 115.772C690.355 121.053 691.77 125.354 694.599 128.674C697.504 132.032 701.163 133.711 705.577 133.711C710.293 133.711 714.103 132.088 717.008 128.844C719.913 125.486 721.366 121.223 721.366 116.055C721.366 110.886 719.913 106.623 717.008 103.265C714.103 99.9833 710.331 98.3422 705.691 98.3422C701.314 98.3422 697.655 100.002 694.712 103.322C691.807 106.68 690.355 110.83 690.355 115.772Z" fill="#2951F2"/>
<path d="M762.563 100.266V143.501H749.83V100.266H744.398V88.3825H749.83V68.18H762.563V88.3825H772.466V100.266H762.563Z" fill="#2951F2"/>
<path d="M822.774 88.3825H835.563V143.501H822.774V137.728C817.53 142.633 811.89 145.085 805.854 145.085C798.233 145.085 791.933 142.331 786.953 136.823C782.011 131.202 779.54 124.185 779.54 115.772C779.54 107.51 782.011 100.625 786.953 95.1166C791.895 89.6086 798.082 86.8545 805.514 86.8545C811.928 86.8545 817.681 89.4954 822.774 94.7771V88.3825ZM792.555 115.772C792.555 121.053 793.97 125.354 796.8 128.674C799.704 132.032 803.364 133.711 807.778 133.711C812.494 133.711 816.304 132.088 819.209 128.844C822.114 125.486 823.566 121.223 823.566 116.055C823.566 110.886 822.114 106.623 819.209 103.265C816.304 99.9833 812.531 98.3422 807.891 98.3422C803.515 98.3422 799.855 100.002 796.913 103.322C794.008 106.68 792.555 110.83 792.555 115.772Z" fill="#2951F2"/>
<path d="M905.395 122.28H867.989L858.256 143.501H844.052L887.286 50.6373L928.993 143.501H914.562L905.395 122.28ZM900.019 109.886L887.06 80.177L873.478 109.886H900.019Z" fill="#2951F2"/>
<path d="M937.538 88.3825H950.27V93.3057C952.609 90.8535 954.684 89.1747 956.495 88.2693C958.344 87.3261 960.532 86.8545 963.059 86.8545C966.417 86.8545 969.926 87.9486 973.585 90.1367L967.756 101.794C965.342 100.059 962.984 99.191 960.683 99.191C953.741 99.191 950.27 104.435 950.27 114.923V143.501H937.538V88.3825Z" fill="#2951F2"/>
<path d="M1030.29 118.941H990.788C991.128 123.468 992.599 127.071 995.202 129.749C997.805 132.39 1001.14 133.711 1005.22 133.711C1008.39 133.711 1011.01 132.956 1013.08 131.447C1015.12 129.938 1017.44 127.146 1020.05 123.072L1030.8 129.07C1029.14 131.9 1027.38 134.333 1025.53 136.37C1023.69 138.37 1021.71 140.03 1019.59 141.35C1017.48 142.633 1015.2 143.576 1012.75 144.18C1010.29 144.783 1007.63 145.085 1004.77 145.085C996.542 145.085 989.939 142.444 984.96 137.163C979.98 131.843 977.49 124.788 977.49 115.998C977.49 107.283 979.904 100.229 984.733 94.8337C989.6 89.5142 996.051 86.8545 1004.09 86.8545C1012.2 86.8545 1018.61 89.4388 1023.33 94.6073C1028.01 99.7381 1030.34 106.849 1030.34 115.942L1030.29 118.941ZM1017.22 108.528C1015.44 101.738 1011.16 98.3422 1004.37 98.3422C1002.82 98.3422 1001.37 98.5874 1000.01 99.0779C998.654 99.5306 997.409 100.21 996.277 101.115C995.183 101.983 994.24 103.039 993.448 104.284C992.656 105.529 992.052 106.944 991.637 108.528H1017.22Z" fill="#2951F2"/>
<path d="M1044.27 88.3825H1057.05V93.4755C1061.51 89.0615 1066.52 86.8545 1072.11 86.8545C1078.52 86.8545 1083.52 88.8729 1087.1 92.9096C1090.2 96.3427 1091.74 101.945 1091.74 109.717V143.501H1078.95V112.716C1078.95 107.283 1078.2 103.53 1076.69 101.455C1075.22 99.342 1072.54 98.2856 1068.66 98.2856C1064.43 98.2856 1061.43 99.6815 1059.66 102.473C1057.92 105.227 1057.05 110.037 1057.05 116.904V143.501H1044.27V88.3825Z" fill="#2951F2"/>
<path d="M1148.5 88.3825H1161.29V143.501H1148.5V137.728C1143.26 142.633 1137.62 145.085 1131.58 145.085C1123.96 145.085 1117.66 142.331 1112.68 136.823C1107.74 131.202 1105.27 124.185 1105.27 115.772C1105.27 107.51 1107.74 100.625 1112.68 95.1166C1117.62 89.6086 1123.81 86.8545 1131.24 86.8545C1137.66 86.8545 1143.41 89.4954 1148.5 94.7771V88.3825ZM1118.28 115.772C1118.28 121.053 1119.7 125.354 1122.53 128.674C1125.43 132.032 1129.09 133.711 1133.51 133.711C1138.22 133.711 1142.03 132.088 1144.94 128.844C1147.84 125.486 1149.3 121.223 1149.3 116.055C1149.3 110.886 1147.84 106.623 1144.94 103.265C1142.03 99.9833 1138.26 98.3422 1133.62 98.3422C1129.24 98.3422 1125.58 100.002 1122.64 103.322C1119.74 106.68 1118.28 110.83 1118.28 115.772Z" fill="#2951F2"/>
<path d="M453.49 116.224C453.49 107.985 451.069 101.235 446.276 95.898L446.269 95.8902C441.558 90.5279 435.591 87.8541 428.289 87.8541C422.21 87.8541 416.76 90.2352 411.906 95.0884L410.199 96.7955V89.3824H399.466V172.493H410.199V134.893L411.911 136.63C416.842 141.634 422.367 144.086 428.516 144.086C435.706 144.085 441.621 141.467 446.332 136.212C451.09 130.91 453.49 124.271 453.49 116.224ZM291.983 99.4175C291.983 86.8421 296.605 76.0228 305.809 67.0123C314.974 58.0014 326.016 53.4849 338.878 53.4849C351.595 53.485 362.524 58.0443 371.612 67.1314C380.74 76.2202 385.318 87.17 385.318 99.9263C385.318 112.758 380.721 123.675 371.549 132.616C362.343 141.591 351.207 146.086 338.198 146.086C326.663 146.085 316.303 142.084 307.153 134.126L307.151 134.124C297.034 125.281 291.983 113.681 291.983 99.4175ZM491.952 85.8541C500.034 85.8541 506.574 88.3593 511.463 93.4341L511.932 93.9332L512.383 94.4429C516.971 99.7631 519.21 106.969 519.21 115.942V115.951L519.209 115.961L519.134 119.941H479.759C480.222 123.768 481.578 126.78 483.779 129.047L484.006 129.272C486.368 131.554 489.368 132.711 493.084 132.711C496.089 132.71 498.489 131.997 500.355 130.641C502.241 129.244 504.482 126.58 507.067 122.534L507.575 121.74L520.042 128.695L519.524 129.577C517.836 132.454 516.042 134.946 514.14 137.043L514.134 137.049C512.23 139.108 510.182 140.826 507.987 142.198L507.977 142.205C505.775 143.541 503.398 144.524 500.85 145.151C498.309 145.776 495.568 146.086 492.631 146.086C484.171 146.085 477.292 143.358 472.098 137.848L472.095 137.846C466.907 132.305 464.356 124.987 464.355 115.999C464.355 107.09 466.828 99.7806 471.854 94.1666L471.86 94.1588C476.939 88.6073 483.671 85.8541 491.952 85.8541ZM703.313 85.8541C709.316 85.8541 714.742 88.0717 719.573 92.4205V87.3824H734.362V144.501H719.573V139.938C714.648 144.005 709.337 146.086 703.653 146.086C695.758 146.086 689.186 143.218 684.011 137.494L684.001 137.483C678.879 131.656 676.339 124.395 676.339 115.772C676.339 107.294 678.882 100.162 684.008 94.4488C689.141 88.7284 695.599 85.8541 703.313 85.8541ZM805.515 85.8541C811.517 85.8541 816.943 88.0723 821.774 92.4214V87.3824H836.563V144.501H821.774V139.937C816.849 144.005 811.538 146.086 805.854 146.086C797.959 146.085 791.386 143.218 786.211 137.494L786.202 137.483C781.08 131.656 778.54 124.396 778.54 115.772C778.54 107.294 781.083 100.162 786.209 94.4488C791.342 88.7284 797.8 85.8541 805.515 85.8541ZM1004.09 85.8541C1012.17 85.8541 1018.71 88.3593 1023.6 93.4341L1024.07 93.9332L1024.52 94.4429C1029.11 99.7631 1031.34 106.969 1031.34 115.942V115.951L1031.34 115.961L1031.27 119.941H991.894C992.357 123.768 993.713 126.78 995.914 129.047L996.141 129.272C998.503 131.554 1001.5 132.711 1005.22 132.711C1008.22 132.71 1010.62 131.997 1012.49 130.641C1014.38 129.244 1016.62 126.58 1019.2 122.534L1019.71 121.74L1032.18 128.695L1031.66 129.577C1029.97 132.454 1028.18 134.946 1026.27 137.043L1026.27 137.049C1024.37 139.108 1022.32 140.826 1020.12 142.198L1020.11 142.205C1017.91 143.541 1015.53 144.524 1012.98 145.151C1010.44 145.776 1007.7 146.086 1004.77 146.086C996.306 146.085 989.427 143.358 984.232 137.848L984.229 137.846C979.042 132.305 976.49 124.987 976.49 115.999C976.49 107.09 978.963 99.7806 983.988 94.1666L983.995 94.1588C989.074 88.6073 995.806 85.8541 1004.09 85.8541ZM1131.24 85.8541C1137.25 85.8541 1142.67 88.0717 1147.5 92.4205V87.3824H1162.29V144.501H1147.5V139.938C1142.58 144.005 1137.27 146.085 1131.58 146.086C1123.69 146.086 1117.12 143.218 1111.94 137.494L1111.93 137.483C1106.81 131.656 1104.27 124.395 1104.27 115.772C1104.27 107.294 1106.81 100.162 1111.94 94.4488C1117.07 88.7284 1123.53 85.8541 1131.24 85.8541ZM578.609 109.716C578.609 102.036 577.072 96.738 574.226 93.5787L574.221 93.5738C570.862 89.7912 566.159 87.8541 559.973 87.8541C554.686 87.8541 549.914 89.9329 545.624 94.1861L543.92 95.8755V89.3824H533.131V142.501H543.92V116.904C543.92 110.017 544.778 104.953 546.677 101.94L546.679 101.937C548.686 98.7759 552.061 97.2857 556.521 97.2857C560.55 97.2857 563.623 98.3803 565.365 100.867L565.522 101.092C567.122 103.475 567.82 107.434 567.82 112.716V142.501H578.609V109.716ZM664.738 99.813C664.738 86.6711 660.327 76.1416 651.54 68.1265L651.538 68.1255C647.189 64.1452 642.356 61.3358 637.034 59.6841L637.021 59.6802L637.008 59.6763C632.064 57.9916 625.247 57.1265 616.506 57.1265H599.171V142.501H616.279C625.104 142.501 631.825 141.691 636.503 140.12L636.512 140.116L636.521 140.113C641.537 138.539 646.358 135.731 650.985 131.66L651.831 130.893C660.43 122.9 664.738 112.568 664.738 99.813ZM763.562 67.1802V87.3824H773.466V101.266H763.562V144.501H748.83V101.266H743.397V87.3824H748.83V67.1802H763.562ZM930.538 144.501H913.905L904.737 123.28H868.631L858.897 144.501H842.483L887.303 48.233L930.538 144.501ZM949.271 114.923C949.271 109.601 950.145 105.434 952.039 102.572C953.981 99.6375 956.917 98.191 960.683 98.191C962.921 98.191 965.154 98.9296 967.371 100.329L972.269 90.5328C969.022 88.7272 965.956 87.8541 963.06 87.8541C960.656 87.8541 958.63 88.3024 956.949 89.1597L956.942 89.1636C955.281 89.9942 953.3 91.5787 950.994 93.9957L949.271 95.8033V89.3824H938.538V142.501H949.271V114.923ZM1090.74 109.716C1090.74 102.036 1089.21 96.738 1086.36 93.5787L1086.36 93.5738C1083 89.7912 1078.29 87.8541 1072.11 87.8541C1066.82 87.8541 1062.05 89.9329 1057.76 94.1861L1056.05 95.8755V89.3824H1045.27V142.501H1056.05V116.904C1056.05 110.017 1056.91 104.953 1058.81 101.94L1058.81 101.937C1060.82 98.7759 1064.2 97.2857 1068.66 97.2857C1072.68 97.2857 1075.76 98.3804 1077.5 100.867L1077.66 101.092C1079.26 103.475 1079.96 107.434 1079.96 112.716V142.501H1090.74V109.716ZM845.62 142.501H857.614L867.348 121.28H906.052L915.22 142.501H927.446L887.269 53.0406L845.62 142.501ZM750.83 89.3824H745.397V99.2662H750.83V142.501H761.562V99.2662H771.466V89.3824H761.562V69.1802H750.83V89.3824ZM409.463 115.999C409.463 110.526 410.973 106.007 414.075 102.542C417.185 99.0681 421.257 97.3423 426.195 97.3423C430.901 97.3424 434.836 99.1486 437.93 102.724L437.931 102.725C440.985 106.262 442.475 110.811 442.475 116.281C442.475 121.468 440.935 125.86 437.816 129.383L437.817 129.384C434.759 132.926 430.841 134.71 426.139 134.711C421.196 134.711 417.14 132.962 414.067 129.445L414.064 129.442C410.977 125.873 409.463 121.365 409.463 115.999ZM689.354 115.772C689.354 110.619 690.876 106.228 693.956 102.668L693.964 102.659L694.26 102.333C697.34 99.0181 701.17 97.3424 705.69 97.3423C710.445 97.3423 714.396 98.9847 717.463 102.279L717.757 102.603L717.765 102.611L718.05 102.949C720.945 106.463 722.366 110.855 722.366 116.054C722.366 121.421 720.852 125.93 717.765 129.499L717.759 129.504L717.753 129.511C714.641 132.986 710.551 134.711 705.577 134.711C700.871 134.71 696.936 132.904 693.843 129.329L693.838 129.323C690.823 125.786 689.355 121.239 689.354 115.772ZM791.556 115.772C791.556 110.619 793.076 106.228 796.156 102.668L796.164 102.659L796.46 102.333C799.54 99.018 803.371 97.3423 807.892 97.3423C812.646 97.3425 816.597 98.9846 819.664 102.279L819.958 102.603L819.965 102.611C823.052 106.179 824.566 110.687 824.566 116.054C824.566 121.421 823.052 125.93 819.965 129.499L819.96 129.504L819.954 129.511C816.843 132.986 812.752 134.71 807.778 134.711C803.072 134.711 799.137 132.904 796.043 129.329L796.038 129.323C793.024 125.786 791.556 121.239 791.556 115.772ZM1117.28 115.772C1117.28 110.619 1118.81 106.228 1121.89 102.668L1121.89 102.659L1122.19 102.333C1125.27 99.0181 1129.1 97.3423 1133.62 97.3423C1138.37 97.3423 1142.33 98.9847 1145.39 102.279L1145.69 102.603L1145.69 102.611C1148.78 106.179 1150.3 110.687 1150.3 116.054C1150.3 121.421 1148.78 125.93 1145.69 129.499L1145.69 129.504L1145.68 129.511C1142.57 132.987 1138.48 134.711 1133.51 134.711C1128.8 134.71 1124.87 132.904 1121.77 129.329L1121.77 129.323C1118.75 125.786 1117.28 121.239 1117.28 115.772ZM305.282 99.5875C305.282 90.1287 308.511 82.1365 314.969 75.6783C321.423 69.1487 329.357 65.8785 338.708 65.8785C348.095 65.8785 356.013 69.1482 362.394 75.6822C368.814 82.1801 372.02 90.247 372.021 99.813C372.021 109.273 368.772 117.337 362.283 123.942L362.279 123.947C355.786 130.479 347.794 133.749 338.368 133.749C329.643 133.749 321.948 130.524 315.323 124.133L314.705 123.525C308.417 117.19 305.282 109.186 305.282 99.5875ZM651.439 99.813C651.439 90.4809 648.329 82.986 642.142 77.2339C636.621 72.146 628.397 69.5191 617.298 69.5191H612.355V130.108H617.298C623.159 130.108 627.973 129.49 631.766 128.287C635.548 127.011 638.969 124.991 642.035 122.217C648.296 116.501 651.439 109.063 651.439 99.813ZM901.546 110.886H871.922L887.081 77.7252L901.546 110.886ZM492.235 97.3423C495.8 97.3424 498.804 98.236 501.161 100.105C503.515 101.972 505.123 104.731 506.049 108.276L506.375 109.528H478.207L478.535 108.275C478.974 106.601 479.616 105.089 480.47 103.748C481.318 102.415 482.334 101.274 483.52 100.334C484.735 99.3611 486.076 98.6276 487.538 98.1373L488.096 97.9507C489.406 97.5438 490.788 97.3423 492.235 97.3423ZM1004.37 97.3423C1007.93 97.3424 1010.94 98.236 1013.3 100.105C1015.65 101.972 1017.26 104.731 1018.18 108.276L1018.51 109.528H990.342L990.67 108.275C991.108 106.601 991.751 105.089 992.604 103.748C993.453 102.415 994.469 101.274 995.654 100.334C996.87 99.3611 998.211 98.6276 999.673 98.1373L1000.23 97.9507C1001.54 97.5438 1002.92 97.3423 1004.37 97.3423ZM875.035 108.886H898.492L887.038 82.6285L875.035 108.886ZM1004.37 99.3423C1002.93 99.3423 1001.59 99.5699 1000.35 100.018L1000.34 100.023L1000.33 100.027C999.084 100.442 997.943 101.063 996.902 101.896L996.898 101.899C995.897 102.693 995.028 103.665 994.292 104.821C993.773 105.637 993.339 106.538 992.99 107.528H1015.88C1015.01 104.926 1013.72 102.997 1012.05 101.672C1010.13 100.146 1007.6 99.3424 1004.37 99.3423ZM492.235 99.3423C490.796 99.3423 489.458 99.5697 488.217 100.018L488.206 100.023L488.193 100.027C486.949 100.442 485.808 101.064 484.768 101.896L484.764 101.899C483.762 102.693 482.893 103.665 482.157 104.821C481.638 105.637 481.204 106.538 480.855 107.528H503.741C502.876 104.926 501.588 102.997 499.918 101.672C497.993 100.146 495.461 99.3424 492.235 99.3423ZM455.49 116.224C455.49 124.437 453.104 131.387 448.294 137.007L447.821 137.547C442.724 143.233 436.264 146.085 428.516 146.086C422.484 146.086 417.039 143.916 412.199 139.653V174.493H397.466V87.3824H412.199V92.0845C416.968 87.954 422.338 85.8541 428.289 85.8541C436.153 85.8541 442.673 88.7653 447.771 94.5699C452.934 100.323 455.49 107.566 455.49 116.224ZM411.463 115.999C411.463 120.968 412.855 124.987 415.577 128.133C418.239 131.178 421.727 132.711 426.139 132.711C430.264 132.71 433.628 131.175 436.304 128.077L436.312 128.067C439.072 124.953 440.475 121.048 440.475 116.281C440.475 111.347 439.181 107.389 436.664 104.326L436.417 104.033C433.701 100.893 430.317 99.3424 426.195 99.3423C421.778 99.3423 418.265 100.86 415.565 103.876C412.858 106.899 411.463 110.908 411.463 115.999ZM466.355 115.999C466.356 124.588 468.782 131.379 473.552 136.476C478.317 141.53 484.642 144.085 492.631 144.086C495.428 144.086 498.007 143.791 500.371 143.209C502.727 142.629 504.915 141.724 506.938 140.496C508.965 139.228 510.874 137.629 512.665 135.692C514.266 133.927 515.801 131.844 517.272 129.44L508.24 124.401C505.819 128.088 503.59 130.736 501.545 132.251L501.538 132.255C499.256 133.915 496.414 134.71 493.084 134.711C488.771 134.711 485.166 133.303 482.355 130.452L482.351 130.446C479.551 127.565 478.009 123.724 477.656 119.015L477.576 117.941H517.172L517.21 115.942L517.203 115.111C517.064 106.594 514.777 100.023 510.453 95.2808C505.958 90.3541 499.831 87.8541 491.952 87.8541C484.166 87.8541 477.996 90.4176 473.343 95.4996L473.344 95.5005C468.711 100.676 466.355 107.477 466.355 115.999ZM978.49 115.999C978.49 124.588 980.917 131.379 985.687 136.476C990.451 141.53 996.777 144.085 1004.77 144.086C1007.56 144.086 1010.14 143.791 1012.51 143.209C1014.86 142.629 1017.05 141.724 1019.07 140.496C1021.1 139.228 1023.01 137.629 1024.8 135.692C1026.4 133.927 1027.94 131.844 1029.41 129.44L1020.38 124.401C1017.95 128.088 1015.72 130.736 1013.68 132.251L1013.67 132.255C1011.39 133.915 1008.55 134.71 1005.22 134.711C1000.91 134.711 997.301 133.303 994.49 130.452L994.485 130.446C991.686 127.565 990.144 123.724 989.791 119.015L989.711 117.941H1029.31L1029.34 115.942L1029.34 115.111C1029.2 106.594 1026.91 100.023 1022.59 95.2808C1018.09 90.3541 1011.97 87.8541 1004.09 87.8541C996.3 87.8541 990.131 90.4176 985.478 95.4996L985.479 95.5005C980.846 100.676 978.49 107.477 978.49 115.999ZM678.339 115.772C678.339 123.973 680.741 130.744 685.501 136.16C690.285 141.447 696.31 144.086 703.653 144.086C709.389 144.086 714.795 141.765 719.891 136.999L721.573 135.424V142.501H732.362V89.3824H721.573V97.2545L719.854 95.4713C714.919 90.3543 709.415 87.8541 703.313 87.8541C696.164 87.8541 690.249 90.4892 685.497 95.7847C680.739 101.088 678.339 107.726 678.339 115.772ZM691.354 115.772C691.355 120.865 692.714 124.918 695.355 128.02L695.612 128.309C698.284 131.254 701.584 132.71 705.577 132.711C710.032 132.711 713.56 131.193 716.258 128.183C718.977 125.037 720.366 121.021 720.366 116.054C720.366 111.089 718.977 107.074 716.26 103.928L716.004 103.646C713.338 100.78 709.927 99.3423 705.69 99.3423C701.605 99.3424 698.217 100.876 695.461 103.985C692.736 107.138 691.354 111.045 691.354 115.772ZM780.54 115.772C780.54 123.973 782.941 130.744 787.701 136.16C792.485 141.447 798.511 144.085 805.854 144.086C811.589 144.086 816.995 141.764 822.091 136.999L823.774 135.424V142.501H834.563V89.3824H823.774V97.2545L822.055 95.4713C817.121 90.3543 811.617 87.8541 805.515 87.8541C798.365 87.8541 792.449 90.4891 787.697 95.7847C782.939 101.087 780.54 107.726 780.54 115.772ZM793.556 115.772C793.556 120.865 794.914 124.918 797.556 128.02L797.812 128.309C800.484 131.255 803.785 132.711 807.778 132.711C812.236 132.71 815.766 131.191 818.464 128.177C821.179 125.032 822.566 121.018 822.566 116.054C822.566 111.089 821.178 107.073 818.46 103.927C815.757 100.874 812.264 99.3425 807.892 99.3423C803.806 99.3423 800.417 100.876 797.661 103.985C794.937 107.138 793.556 111.045 793.556 115.772ZM1106.27 115.772C1106.27 123.969 1108.67 130.738 1113.42 136.152L1113.88 136.641C1118.59 141.607 1124.47 144.086 1131.58 144.086C1137.32 144.085 1142.72 141.765 1147.82 136.999L1149.5 135.424V142.501H1160.29V89.3824H1149.5V97.2545L1147.78 95.4713C1142.85 90.3543 1137.35 87.8541 1131.24 87.8541C1124.09 87.8541 1118.18 90.4892 1113.43 95.7847C1108.67 101.088 1106.27 107.726 1106.27 115.772ZM1119.28 115.772C1119.28 120.865 1120.64 124.918 1123.29 128.02L1123.54 128.309C1126.21 131.254 1129.51 132.71 1133.51 132.711C1137.96 132.711 1141.49 131.193 1144.19 128.183C1146.91 125.037 1148.3 121.021 1148.3 116.054C1148.3 111.089 1146.91 107.074 1144.19 103.928L1143.93 103.646C1141.27 100.78 1137.86 99.3423 1133.62 99.3423C1129.53 99.3423 1126.15 100.876 1123.39 103.985C1120.67 107.138 1119.28 111.045 1119.28 115.772ZM951.271 144.501H936.538V87.3824H951.271V90.9019C952.98 89.2997 954.572 88.1123 956.048 87.3746C958.063 86.3481 960.411 85.8541 963.06 85.8541C966.641 85.8541 970.325 87.0227 974.099 89.2789L974.895 89.7545L968.126 103.292L967.173 102.606C964.879 100.957 962.721 100.191 960.683 100.191C957.506 100.191 955.236 101.367 953.707 103.676C952.131 106.058 951.271 109.758 951.271 114.923V144.501ZM580.609 144.501H565.82V112.716C565.82 107.304 565.054 103.839 563.748 102.043L563.741 102.035L563.735 102.026C562.532 100.299 560.254 99.2857 556.521 99.2857C552.531 99.2857 549.907 100.585 548.368 103.005C546.796 105.501 545.92 110.059 545.92 116.904V144.501H531.131V87.3824H545.92V91.2027C550.113 87.6594 554.804 85.8541 559.973 85.8541C566.61 85.8541 571.903 87.9527 575.712 92.2398L576.02 92.5943C579.148 96.3182 580.609 102.1 580.609 109.716V144.501ZM1092.74 144.501H1077.96V112.716C1077.96 107.304 1077.19 103.839 1075.88 102.043L1075.88 102.035L1075.87 102.026C1074.67 100.299 1072.39 99.2857 1068.66 99.2857C1064.67 99.2857 1062.04 100.585 1060.5 103.005C1058.93 105.501 1058.05 110.059 1058.05 116.904V144.501H1043.27V87.3824H1058.05V91.2027C1062.25 87.6593 1066.94 85.8541 1072.11 85.8541C1078.74 85.8541 1084.04 87.9528 1087.85 92.2398L1088.15 92.5943C1091.28 96.3182 1092.74 102.1 1092.74 109.716V144.501ZM653.439 99.813C653.439 109.575 650.096 117.568 643.381 123.697L643.377 123.7C640.109 126.656 636.445 128.822 632.387 130.188L632.378 130.191L632.37 130.193C628.316 131.479 623.283 132.108 617.298 132.108H610.355V67.5191H617.298C628.683 67.5191 637.474 70.2126 643.497 75.7632L643.5 75.7662L644.113 76.3502C650.341 82.4398 653.439 90.2894 653.439 99.813ZM666.738 99.813C666.738 113.507 661.935 124.654 652.31 133.159L652.309 133.16C647.51 137.382 642.453 140.343 637.139 142.014C632.158 143.687 625.185 144.501 616.279 144.501H597.171V55.1265H616.506C625.345 55.1265 632.412 55.9967 637.653 57.7828C643.261 59.5274 648.34 62.4874 652.888 66.649L653.74 67.4478C662.416 75.7782 666.738 86.5962 666.738 99.813ZM307.282 99.5875C307.282 108.701 310.237 116.188 316.128 122.121L316.708 122.69L316.71 122.692C322.987 128.749 330.193 131.749 338.368 131.749C347.277 131.749 354.753 128.68 360.86 122.537C366.969 116.316 370.021 108.761 370.021 99.813C370.02 90.7428 367.001 83.1909 360.972 77.0884L360.968 77.0836C354.975 70.945 347.578 67.8785 338.708 67.8785C329.877 67.8785 322.457 70.9449 316.387 77.0884L316.383 77.0923C310.316 83.1593 307.282 90.6358 307.282 99.5875ZM293.983 99.4175C293.983 113.147 298.817 124.182 308.468 132.618C317.275 140.278 327.174 144.085 338.198 144.086C350.692 144.086 361.325 139.79 370.152 131.184C378.938 122.62 383.318 112.22 383.318 99.9263C383.318 87.7081 378.956 77.2673 370.201 68.5494L370.2 68.5474C361.482 59.8293 351.059 55.485 338.878 55.4849C326.539 55.4849 316.001 59.7961 307.209 68.44L307.208 68.442C298.378 77.0873 293.983 87.3954 293.983 99.4175Z" fill="#2951F2"/>
<defs>
<linearGradient id="paint0_linear_1318_336" x1="57.5353" y1="193.873" x2="424.892" y2="-20.3777" gradientUnits="userSpaceOnUse">
<stop stop-color="#7BC5FF"/>
<stop offset="0.0705356" stop-color="#70B0FF"/>
<stop offset="0.349608" stop-color="#2951F2"/>
<stop offset="1" stop-color="#2951F2"/>
</linearGradient>
</defs>
</svg>
