<svg width="104" height="32" viewBox="0 0 104 32" fill="none" xmlns="http://www.w3.org/2000/svg">
<g clip-path="url(#clip0_1055_1788)">
<path d="M3.18791 6.25134L0.0254555 1.80762L22.1221 5.34687L3.18791 6.25134Z" fill="url(#paint0_linear_1055_1788)"/>
<path d="M8.62084 13.5659L5.13403 8.72893L33.069 4.71777L8.62084 13.5659Z" fill="url(#paint1_linear_1055_1788)"/>
<path d="M15.0268 22.0599L10.3642 15.8465L40.6508 2.55469L15.0268 22.0599Z" fill="url(#paint2_linear_1055_1788)"/>
<path d="M22.1221 31.9699L16.7297 24.5375L45.8405 0.0380859L22.1221 31.9699Z" fill="url(#paint3_linear_1055_1788)"/>
<path d="M52.7094 8.99463L52.7359 9.0559L59.0015 23.647L65.2371 8.99463H68.6973L60.0448 29.2037H57.9595L49.249 8.99463H52.7094ZM73.9892 15.1088V29.2037H70.804V15.1088H73.9892ZM104 22.6142C104 23.8368 103.67 24.9756 103.011 26.0286L103.011 26.0284C102.391 27.0476 101.554 27.8643 100.499 28.4777L100.396 28.5364C99.2911 29.1568 98.089 29.467 96.7914 29.467C95.5708 29.467 94.4312 29.1755 93.3743 28.5933L93.2723 28.5361C92.2215 27.9355 91.3791 27.1316 90.7464 26.1255L90.6858 26.0275C90.0462 24.9745 89.7261 23.8362 89.7261 22.6142V22.5145H92.9112V22.6142C92.9112 23.2816 93.0877 23.9033 93.4413 24.4808L93.509 24.588C93.8552 25.1166 94.3076 25.5414 94.8667 25.8634L94.9789 25.9257C95.5425 26.2271 96.1462 26.3775 96.7914 26.3775C97.5189 26.3775 98.1888 26.2058 98.8031 25.8626C99.4186 25.5191 99.9023 25.0587 100.256 24.4808L100.257 24.4789L100.325 24.3702C100.652 23.8237 100.815 23.2389 100.815 22.6142C100.815 21.9095 100.629 21.2702 100.257 20.6936L100.256 20.6921L100.255 20.6906C99.9236 20.1316 99.4779 19.6844 98.917 19.3478L98.8031 19.2821C98.1888 18.939 97.5189 18.7672 96.7914 18.7672H96.6888H96.6964H93.233L97.0152 12.3475H91.7603V9.258H102.528L98.5953 15.8927C99.2216 16.0476 99.8218 16.2859 100.396 16.6083L100.499 16.667C101.554 17.2811 102.391 18.1072 103.011 19.1439C103.67 20.1974 104 21.355 104 22.6142ZM80.323 19.0158C80.323 19.2368 80.3838 19.4291 80.5037 19.596C80.6206 19.7401 80.8748 19.898 81.2907 20.063L81.4555 20.1255C81.8633 20.2733 82.4332 20.4362 83.167 20.6141C84.6111 20.8763 85.7204 21.3925 86.4839 22.1708L86.5542 22.2444C87.2709 23.0086 87.6295 23.9258 87.6295 24.9909C87.6295 25.9921 87.3466 26.8395 86.7758 27.5268L86.775 27.5279C86.2099 28.1895 85.5078 28.6811 84.6707 29.0022L84.6686 29.003C83.8364 29.3034 82.9932 29.4537 82.14 29.4537C81.4014 29.4537 80.6357 29.3218 79.8434 29.0593L79.8425 29.0591C79.062 28.7941 78.3886 28.3585 77.8232 27.7535L77.8221 27.7522C77.2681 27.138 76.9945 26.3537 76.9945 25.4077V25.3081H80.1797V25.4077C80.1797 25.5724 80.228 25.7101 80.3222 25.8254C80.4174 25.9418 80.5646 26.0415 80.7722 26.1205L80.8561 26.15C81.2764 26.2929 81.7042 26.3644 82.14 26.3644C82.7186 26.3644 83.2482 26.2557 83.7303 26.0399C83.9743 25.9257 84.1513 25.7815 84.2678 25.6101C84.3842 25.4386 84.4443 25.2336 84.4443 24.9909C84.4442 24.6556 84.2934 24.3784 83.9776 24.1541C83.6571 23.9264 83.1666 23.7539 82.4953 23.6438L82.4918 23.6433L82.4882 23.6425C80.5352 23.1782 79.1482 22.5897 78.3453 21.8679L78.3443 21.867C77.5391 21.124 77.1376 20.1708 77.1376 19.0158C77.1376 18.3283 77.3448 17.6705 77.7555 17.0446L77.7559 17.0441L77.8383 16.9246C78.2599 16.3348 78.8183 15.8541 79.5117 15.4824C80.2542 15.066 81.093 14.8586 82.0254 14.8586C82.9927 14.8587 83.8757 15.0275 84.6731 15.3669C85.4895 15.7063 86.1355 16.1795 86.6062 16.7882C87.0785 17.3992 87.3142 18.106 87.3142 18.9045V19.0041H84.1291V18.9045C84.1289 18.6639 83.9615 18.4403 83.5554 18.2433L83.5537 18.2424C83.1722 18.0486 82.6651 17.9481 82.0254 17.9481C81.6963 17.9481 81.397 18.0099 81.1258 18.1321L81.0322 18.18C80.8505 18.278 80.7021 18.3898 80.5853 18.5144L80.5297 18.5777C80.3833 18.7552 80.323 18.9002 80.323 19.0158ZM74.3332 11.9567C74.3332 12.4503 74.1642 12.878 73.828 13.235L73.7587 13.3056C73.3772 13.6756 72.9215 13.8628 72.3968 13.8628C71.8719 13.8628 71.4161 13.6756 71.0346 13.3056C70.6524 12.9348 70.4603 12.4832 70.4603 11.9567C70.4603 11.4474 70.6535 11.0138 71.0366 10.6616C71.4177 10.2929 71.8727 10.1063 72.3968 10.1063C72.9207 10.1063 73.3755 10.2929 73.7566 10.6616L73.8263 10.7285C74.1633 11.0682 74.3332 11.4792 74.3332 11.9567Z" fill="#2951F2"/>
</g>
<defs>
<linearGradient id="paint0_linear_1055_1788" x1="8.28701" y1="1.66534" x2="19.0254" y2="38.8467" gradientUnits="userSpaceOnUse">
<stop stop-color="#338CFD"/>
<stop offset="0.443799" stop-color="#1A40E3"/>
<stop offset="1" stop-color="#4B38F6"/>
</linearGradient>
<linearGradient id="paint1_linear_1055_1788" x1="8.28701" y1="1.66545" x2="19.0254" y2="38.8468" gradientUnits="userSpaceOnUse">
<stop stop-color="#338CFD"/>
<stop offset="0.443799" stop-color="#1A40E3"/>
<stop offset="1" stop-color="#4B38F6"/>
</linearGradient>
<linearGradient id="paint2_linear_1055_1788" x1="8.28701" y1="1.66523" x2="19.0254" y2="38.8466" gradientUnits="userSpaceOnUse">
<stop stop-color="#338CFD"/>
<stop offset="0.443799" stop-color="#1A40E3"/>
<stop offset="1" stop-color="#4B38F6"/>
</linearGradient>
<linearGradient id="paint3_linear_1055_1788" x1="8.28701" y1="1.66543" x2="19.0254" y2="38.8468" gradientUnits="userSpaceOnUse">
<stop stop-color="#338CFD"/>
<stop offset="0.443799" stop-color="#1A40E3"/>
<stop offset="1" stop-color="#4B38F6"/>
</linearGradient>
<clipPath id="clip0_1055_1788">
<rect width="104" height="32" fill="white" transform="translate(0 0.00390625)"/>
</clipPath>
</defs>
</svg>
