<svg width="24" height="24" viewBox="0 0 24 24" fill="none" xmlns="http://www.w3.org/2000/svg">
<g clip-path="url(#clip0_1924_30132)">
<path opacity="0.4" d="M2.1688 9.68828C2.14583 9.59322 2.16383 9.49288 2.21842 9.41173L6.04222 3.7273C6.09089 3.65495 6.1649 3.60346 6.24966 3.58298L16.6007 1.08163C16.7879 1.03639 16.9763 1.15147 17.0216 1.33868L19.658 12.2487C20.7217 16.6504 18.0157 21.0808 13.6141 22.1445C9.21248 23.2082 4.782 20.5022 3.71834 16.1006L2.1688 9.68828Z" fill="url(#paint0_linear_1924_30132)"/>
<path d="M5.19531 7.24425C5.19531 7.14645 5.23638 7.05315 5.3085 6.98709L10.3605 2.35987C10.4248 2.30098 10.5089 2.26831 10.5961 2.26831H21.2451C21.4377 2.26831 21.5938 2.42444 21.5938 2.61703V13.8411C21.5938 18.3694 17.9229 22.0404 13.3946 22.0404C8.86624 22.0404 5.19531 18.3694 5.19531 13.8411V7.24425Z" fill="url(#paint1_linear_1924_30132)"/>
<path d="M9.87906 7.30192L5.28333 7.01537L10.4111 2.32143L10.626 6.5632C10.6475 6.98306 10.2987 7.32808 9.87906 7.30192Z" fill="#5D76FF"/>
<path fill-rule="evenodd" clip-rule="evenodd" d="M15.7002 11.8158V13.0479C15.7002 14.0038 14.9253 14.7787 13.9694 14.7787C13.0135 14.7787 12.2386 14.0038 12.2386 13.0479V9.96771H10.2145V13.3413C10.2145 15.4151 11.8956 17.0962 13.9694 17.0962C16.0432 17.0962 17.7243 15.4151 17.7243 13.3413V9.96771L17.7243 11.8158H15.7002Z" fill="#0028FD"/>
<path d="M17.7243 10.9944H18.5457V11.8158L17.7243 11.8158L17.7243 10.9944Z" fill="#0028FD"/>
<path d="M15.7002 10.4957H17.0203V11.8158L15.7002 11.8158L15.7002 10.4957Z" fill="#0028FD"/>
<path d="M17.0203 9.7917H17.7243V10.4957L17.0203 10.4957L17.0203 9.7917Z" fill="#0028FD"/>
<path d="M18.135 8.61828H18.5751V9.05831H18.135V8.61828Z" fill="#0028FD"/>
<path fill-rule="evenodd" clip-rule="evenodd" d="M15.4627 11.7367V12.9688C15.4627 13.9246 14.6878 14.6995 13.7319 14.6995C12.776 14.6995 12.0011 13.9246 12.0011 12.9688V9.88854H9.97697V13.2621C9.97697 15.3359 11.6581 17.017 13.7319 17.017C15.8057 17.017 17.4868 15.3359 17.4868 13.2621V9.88854L17.4868 11.7367H15.4627Z" fill="white"/>
<path d="M17.4868 10.9153H18.3082V11.7367L17.4868 11.7367L17.4868 10.9153Z" fill="white"/>
<path d="M15.4627 10.4166H16.7828V11.7367L15.4627 11.7367L15.4627 10.4166Z" fill="white"/>
<path d="M16.7828 9.71253H17.4868V10.4166L16.7828 10.4166L16.7828 9.71253Z" fill="white"/>
<path d="M17.8975 8.53912H18.3376V8.97915H17.8975V8.53912Z" fill="white"/>
</g>
<defs>
<linearGradient id="paint0_linear_1924_30132" x1="0.16149" y1="7.29712" x2="19.8967" y2="12.4412" gradientUnits="userSpaceOnUse">
<stop stop-color="#1543FE"/>
<stop offset="1" stop-color="#8C46FF"/>
</linearGradient>
<linearGradient id="paint1_linear_1924_30132" x1="3.80582" y1="4.44849" x2="21.7806" y2="14.0843" gradientUnits="userSpaceOnUse">
<stop stop-color="#1543FE"/>
<stop offset="1" stop-color="#8C46FF"/>
</linearGradient>
<clipPath id="clip0_1924_30132">
<rect width="24" height="24" fill="white"/>
</clipPath>
</defs>
</svg>
