<svg width="134" height="134" xmlns="http://www.w3.org/2000/svg"><path d="m122,9c0,5-4,9-9,9s-9-4-9-9,4-9,9-9,9,4,9,9z" fill="url(#a)"/><path d="m122,9c0,5-4,9-9,9s-9-4-9-9,4-9,9-9,9,4,9,9z" fill="#010101"/><path d="m91,18c0,5-4,9-9,9s-9-4-9-9,4-9,9-9,9,4,9,9z" fill="url(#b)"/><path d="m91,18c0,5-4,9-9,9s-9-4-9-9,4-9,9-9,9,4,9,9z" fill="#010101"/><path fill-rule="evenodd" clip-rule="evenodd" d="m39,62c0,16,8,30,20,38,7-6,12-16,12-26V49c0-4,3-7,6-8l46-12c5-1,11,3,11,8v31c0,37-30,66-66,66-37,0-66-30-66-66V46c0-4,3-7,6-8l20-6c5-1,11,3,11,8v21zm-29,6c0,16,6,30,17,40,3,1,5,1,8,1,5,0,10-1,15-3C37,95,29,79,29,62V42l-19,5v20z" fill="url(#c)"/><path fill-rule="evenodd" clip-rule="evenodd" d="m39,62c0,16,8,30,20,38,7-6,12-16,12-26V49c0-4,3-7,6-8l46-12c5-1,11,3,11,8v31c0,37-30,66-66,66-37,0-66-30-66-66V46c0-4,3-7,6-8l20-6c5-1,11,3,11,8v21zm-29,6c0,16,6,30,17,40,3,1,5,1,8,1,5,0,10-1,15-3C37,95,29,79,29,62V42l-19,5v20z" fill="#010101"/><defs><linearGradient id="a" x1="84" y1="41" x2="75" y2="120" gradientUnits="userSpaceOnUse"><stop stop-color="#fff"/><stop offset="1" stop-color="#2e2e2e"/></linearGradient><linearGradient id="b" x1="84" y1="41" x2="75" y2="120" gradientUnits="userSpaceOnUse"><stop stop-color="#fff"/><stop offset="1" stop-color="#2e2e2e"/></linearGradient><linearGradient id="c" x1="84" y1="41" x2="75" y2="120" gradientUnits="userSpaceOnUse"><stop stop-color="#fff"/><stop offset="1" stop-color="#2e2e2e"/></linearGradient></defs></svg>