<svg width="223" height="200" xmlns="http://www.w3.org/2000/svg">

 <g>
  <title>Layer 1</title>
  <path id="svg_14" fill="#624aff" d="m0,89.84l25.65,0l0,25.64999l-25.65,0l0,-25.64999z"/>
  <path id="svg_15" fill="#624aff" d="m99.14,115.49l25.65,0l0,25.65l-25.65,0l0,-25.65z"/>
  <path id="svg_16" fill="#624aff" d="m176.09,141.14l-25.64999,0l0,22.19l47.84,0l0,-47.84l-22.19,0l0,25.65z"/>
  <path id="svg_17" fill="#36cfd1" d="m124.79,89.84l25.65,0l0,25.64999l-25.65,0l0,-25.64999z"/>
  <path id="svg_18" fill="#36cfd1" d="m0,64.19l25.65,0l0,25.65l-25.65,0l0,-25.65z"/>
  <path id="svg_19" fill="#624aff" d="m198.28,89.84l25.64999,0l0,25.64999l-25.64999,0l0,-25.64999z"/>
  <path id="svg_20" fill="#36cfd1" d="m198.28,64.19l25.64999,0l0,25.65l-25.64999,0l0,-25.65z"/>
  <path id="svg_21" fill="#624aff" d="m150.44,42l0,22.19l25.64999,0l0,25.65l22.19,0l0,-47.84l-47.84,0z"/>
  <path id="svg_22" fill="#36cfd1" d="m73.49,89.84l25.65,0l0,25.64999l-25.65,0l0,-25.64999z"/>
  <path id="svg_23" fill="#624aff" d="m47.84,64.19l25.65,0l0,-22.19l-47.84,0l0,47.84l22.19,0l0,-25.65z"/>
  <path id="svg_24" fill="#624aff" d="m47.84,115.49l-22.19,0l0,47.84l47.84,0l0,-22.19l-25.65,0l0,-25.65z"/>
 </g>
</svg>